  0
SECTION
  2
HEADER
  9
$ACADVER
  1
AC1014
  9
$ACADMAINTVER
 70
     9
  9
$DWGCODEPAGE
  3
ANSI_1252
  9
$INSBASE
 10
0.0
 20
0.0
 30
0.0
  9
$EXTMIN
 10
1.000000000000000E+20
 20
1.000000000000000E+20
 30
1.000000000000000E+20
  9
$EXTMAX
 10
-1.000000000000000E+20
 20
-1.000000000000000E+20
 30
-1.000000000000000E+20
  9
$LIMMIN
 10
0.0
 20
0.0
  9
$LIMMAX
 10
12.0
 20
9.0
  9
$ORTHOMODE
 70
     0
  9
$REGENMODE
 70
     1
  9
$FILLMODE
 70
     1
  9
$QTEXTMODE
 70
     0
  9
$MIRRTEXT
 70
     1
  9
$DRAGMODE
 70
     2
  9
$LTSCALE
 40
1.0
  9
$OSMODE
 70
    37
  9
$ATTMODE
 70
     1
  9
$TEXTSIZE
 40
0.2
  9
$TRACEWID
 40
0.05
  9
$TEXTSTYLE
  7
STANDARD
  9
$CLAYER
  8
0
  9
$CELTYPE
  6
BYLAYER
  9
$CECOLOR
 62
   256
  9
$CELTSCALE
 40
1.0
  9
$DELOBJ
 70
     1
  9
$DISPSILH
 70
     0
  9
$DIMSCALE
 40
1.0
  9
$DIMASZ
 40
0.18
  9
$DIMEXO
 40
0.0625
  9
$DIMDLI
 40
0.38
  9
$DIMRND
 40
0.0
  9
$DIMDLE
 40
0.0
  9
$DIMEXE
 40
0.18
  9
$DIMTP
 40
0.0
  9
$DIMTM
 40
0.0
  9
$DIMTXT
 40
0.18
  9
$DIMCEN
 40
0.09
  9
$DIMTSZ
 40
0.0
  9
$DIMTOL
 70
     0
  9
$DIMLIM
 70
     0
  9
$DIMTIH
 70
     1
  9
$DIMTOH
 70
     1
  9
$DIMSE1
 70
     0
  9
$DIMSE2
 70
     0
  9
$DIMTAD
 70
     0
  9
$DIMZIN
 70
     0
  9
$DIMBLK
  1

  9
$DIMASO
 70
     1
  9
$DIMSHO
 70
     1
  9
$DIMPOST
  1

  9
$DIMAPOST
  1

  9
$DIMALT
 70
     0
  9
$DIMALTD
 70
     2
  9
$DIMALTF
 40
25.4
  9
$DIMLFAC
 40
1.0
  9
$DIMTOFL
 70
     0
  9
$DIMTVP
 40
0.0
  9
$DIMTIX
 70
     0
  9
$DIMSOXD
 70
     0
  9
$DIMSAH
 70
     0
  9
$DIMBLK1
  1

  9
$DIMBLK2
  1

  9
$DIMSTYLE
  2
STANDARD
  9
$DIMCLRD
 70
     0
  9
$DIMCLRE
 70
     0
  9
$DIMCLRT
 70
     0
  9
$DIMTFAC
 40
1.0
  9
$DIMGAP
 40
0.09
  9
$DIMJUST
 70
     0
  9
$DIMSD1
 70
     0
  9
$DIMSD2
 70
     0
  9
$DIMTOLJ
 70
     1
  9
$DIMTZIN
 70
     0
  9
$DIMALTZ
 70
     0
  9
$DIMALTTZ
 70
     0
  9
$DIMFIT
 70
     3
  9
$DIMUPT
 70
     0
  9
$DIMUNIT
 70
     2
  9
$DIMDEC
 70
     4
  9
$DIMTDEC
 70
     4
  9
$DIMALTU
 70
     2
  9
$DIMALTTD
 70
     2
  9
$DIMTXSTY
  7
STANDARD
  9
$DIMAUNIT
 70
     0
  9
$LUNITS
 70
     2
  9
$LUPREC
 70
     4
  9
$SKETCHINC
 40
0.1
  9
$FILLETRAD
 40
0.5
  9
$AUNITS
 70
     0
  9
$AUPREC
 70
     0
  9
$MENU
  1
.
  9
$ELEVATION
 40
0.0
  9
$PELEVATION
 40
0.0
  9
$THICKNESS
 40
0.0
  9
$LIMCHECK
 70
     0
  9
$CHAMFERA
 40
0.0
  9
$CHAMFERB
 40
0.0
  9
$CHAMFERC
 40
0.0
  9
$CHAMFERD
 40
0.0
  9
$SKPOLY
 70
     0
  9
$TDCREATE
 40
2456903.926658634
  9
$TDUPDATE
 40
2456903.9266589
  9
$TDINDWG
 40
0.0000000116
  9
$TDUSRTIMER
 40
0.0000000116
  9
$USRTIMER
 70
     1
  9
$ANGBASE
 50
0.0
  9
$ANGDIR
 70
     0
  9
$PDMODE
 70
     0
  9
$PDSIZE
 40
0.0
  9
$PLINEWID
 40
0.0
  9
$COORDS
 70
     1
  9
$SPLFRAME
 70
     0
  9
$SPLINETYPE
 70
     6
  9
$SPLINESEGS
 70
     8
  9
$ATTDIA
 70
     0
  9
$ATTREQ
 70
     1
  9
$HANDLING
 70
     1
  9
$HANDSEED
  5
1C3
  9
$SURFTAB1
 70
     6
  9
$SURFTAB2
 70
     6
  9
$SURFTYPE
 70
     6
  9
$SURFU
 70
     6
  9
$SURFV
 70
     6
  9
$UCSNAME
  2

  9
$UCSORG
 10
0.0
 20
0.0
 30
0.0
  9
$UCSXDIR
 10
1.0
 20
0.0
 30
0.0
  9
$UCSYDIR
 10
0.0
 20
1.0
 30
0.0
  9
$PUCSNAME
  2

  9
$PUCSORG
 10
0.0
 20
0.0
 30
0.0
  9
$PUCSXDIR
 10
1.0
 20
0.0
 30
0.0
  9
$PUCSYDIR
 10
0.0
 20
1.0
 30
0.0
  9
$USERI1
 70
     0
  9
$USERI2
 70
     0
  9
$USERI3
 70
     0
  9
$USERI4
 70
     0
  9
$USERI5
 70
     0
  9
$USERR1
 40
0.0
  9
$USERR2
 40
0.0
  9
$USERR3
 40
0.0
  9
$USERR4
 40
0.0
  9
$USERR5
 40
0.0
  9
$WORLDVIEW
 70
     1
  9
$SHADEDGE
 70
     3
  9
$SHADEDIF
 70
    70
  9
$TILEMODE
 70
     1
  9
$MAXACTVP
 70
    64
  9
$PINSBASE
 10
0.0
 20
0.0
 30
0.0
  9
$PLIMCHECK
 70
     0
  9
$PEXTMIN
 10
1.000000000000000E+20
 20
1.000000000000000E+20
 30
1.000000000000000E+20
  9
$PEXTMAX
 10
-1.000000000000000E+20
 20
-1.000000000000000E+20
 30
-1.000000000000000E+20
  9
$PLIMMIN
 10
0.0
 20
0.0
  9
$PLIMMAX
 10
12.0
 20
9.0
  9
$UNITMODE
 70
     0
  9
$VISRETAIN
 70
     1
  9
$PLINEGEN
 70
     0
  9
$PSLTSCALE
 70
     1
  9
$TREEDEPTH
 70
  3020
  9
$PICKSTYLE
 70
     1
  9
$CMLSTYLE
  2
STANDARD
  9
$CMLJUST
 70
     0
  9
$CMLSCALE
 40
1.0
  9
$PROXYGRAPHICS
 70
     1
  9
$MEASUREMENT
 70
     0
  0
ENDSEC
  0
SECTION
  2
CLASSES
  0
CLASS
  1
ACDBDICTIONARYWDFLT
  2
AcDbDictionaryWithDefault
  3
ObjectDBX Classes
 90
        0
280
     0
281
     0
  0
CLASS
  1
VISUALSTYLE
  2
AcDbVisualStyle
  3
ObjectDBX Classes
 90
     4095
280
     0
281
     0
  0
CLASS
  1
MATERIAL
  2
AcDbMaterial
  3
ObjectDBX Classes
 90
     1153
280
     0
281
     0
  0
CLASS
  1
SCALE
  2
AcDbScale
  3
ObjectDBX Classes
 90
     1153
280
     0
281
     0
  0
CLASS
  1
SUN
  2
AcDbSun
  3
SCENEOE
 90
     1153
280
     0
281
     0
  0
CLASS
  1
DICTIONARYVAR
  2
AcDbDictionaryVar
  3
ObjectDBX Classes
 90
        0
280
     0
281
     0
  0
CLASS
  1
XRECORD
  2
AcDbXrecord
  3
ObjectDBX Classes
 90
        0
280
     0
281
     0
  0
CLASS
  1
LWPOLYLINE
  2
AcDbPolyline
  3
ObjectDBX Classes
 90
        0
280
     0
281
     1
  0
CLASS
  1
HATCH
  2
AcDbHatch
  3
ObjectDBX Classes
 90
        0
280
     0
281
     1
  0
CLASS
  1
ACDBPLACEHOLDER
  2
AcDbPlaceHolder
  3
ObjectDBX Classes
 90
        0
280
     0
281
     0
  0
CLASS
  1
LAYOUT
  2
AcDbLayout
  3
ObjectDBX Classes
 90
        0
280
     0
281
     0
  0
ENDSEC
  0
SECTION
  2
TABLES
  0
TABLE
  2
VPORT
  5
8
102
{ACAD_XDICTIONARY
360
1B9
102
}
330
0
100
AcDbSymbolTable
 70
     1
  0
VPORT
  5
29
330
8
100
AcDbSymbolTableRecord
100
AcDbViewportTableRecord
  2
*ACTIVE
 70
     0
 10
0.0
 20
0.0
 11
1.0
 21
1.0
 12
0.0
 22
0.0
 13
0.0
 23
0.0
 14
0.5
 24
0.5
 15
0.5
 25
0.5
 16
0.0
 26
0.0
 36
1.0
 17
0.0
 27
0.0
 37
-1000.0
 40
32.41093224696485
 41
2.199770378874856
 42
50.0
 43
317.3506947026872
 44
415.8130713032844
 50
0.0
 51
0.0
 71
     0
 72
   100
 73
     1
 74
     3
 75
     0
 76
     0
 77
     0
 78
     0
  0
ENDTAB
  0
TABLE
  2
LTYPE
  5
5
330
0
100
AcDbSymbolTable
 70
     1
  0
LTYPE
  5
14
330
5
100
AcDbSymbolTableRecord
100
AcDbLinetypeTableRecord
  2
BYBLOCK
 70
     0
  3

 72
    65
 73
     0
 40
0.0
  0
LTYPE
  5
15
330
5
100
AcDbSymbolTableRecord
100
AcDbLinetypeTableRecord
  2
BYLAYER
 70
     0
  3

 72
    65
 73
     0
 40
0.0
  0
LTYPE
  5
16
330
5
100
AcDbSymbolTableRecord
100
AcDbLinetypeTableRecord
  2
CONTINUOUS
 70
     0
  3
Solid line
 72
    65
 73
     0
 40
0.0
  0
ENDTAB
  0
TABLE
  2
LAYER
  5
2
330
0
100
AcDbSymbolTable
 70
     3
  0
LAYER
  5
10
330
2
100
AcDbSymbolTableRecord
100
AcDbLayerTableRecord
  2
0
 70
     0
 62
     7
  6
CONTINUOUS
  0
LAYER
  5
6A
330
2
100
AcDbSymbolTableRecord
100
AcDbLayerTableRecord
  2
PROFILEEDGES
 70
     0
 62
     7
  6
CONTINUOUS
  0
LAYER
  5
6B
330
2
100
AcDbSymbolTableRecord
100
AcDbLayerTableRecord
  2
SECTIONCUTEDGES
 70
     0
 62
     7
  6
CONTINUOUS
  0
ENDTAB
  0
TABLE
  2
STYLE
  5
3
330
0
100
AcDbSymbolTable
 70
     1
  0
STYLE
  5
11
330
3
100
AcDbSymbolTableRecord
100
AcDbTextStyleTableRecord
  2
STANDARD
 70
     0
 40
0.0
 41
1.0
 50
0.0
 71
     0
 42
0.2
  3
txt
  4

  0
ENDTAB
  0
TABLE
  2
VIEW
  5
6
330
0
100
AcDbSymbolTable
 70
     0
  0
ENDTAB
  0
TABLE
  2
UCS
  5
7
330
0
100
AcDbSymbolTable
 70
     0
  0
ENDTAB
  0
TABLE
  2
APPID
  5
9
330
0
100
AcDbSymbolTable
 70
     1
  0
APPID
  5
12
330
9
100
AcDbSymbolTableRecord
100
AcDbRegAppTableRecord
  2
ACAD
 70
     0
  0
ENDTAB
  0
TABLE
  2
DIMSTYLE
  5
A
330
0
100
AcDbSymbolTable
 70
     1
  0
DIMSTYLE
105
27
330
A
100
AcDbSymbolTableRecord
100
AcDbDimStyleTableRecord
  2
STANDARD
 70
     0
  3

  4

  5

  6

  7

 40
1.0
 41
0.18
 42
0.0625
 43
0.38
 44
0.18
 45
0.0
 46
0.0
 47
0.0
 48
0.0
140
0.18
141
0.09
142
0.0
143
25.4
144
1.0
145
0.0
146
1.0
147
0.09
 71
     0
 72
     0
 73
     1
 74
     1
 75
     0
 76
     0
 77
     0
 78
     0
170
     0
171
     2
172
     0
173
     0
174
     0
175
     0
176
     0
177
     0
178
     0
270
     2
271
     4
272
     4
273
     2
274
     2
340
11
275
     0
280
     0
281
     0
282
     0
283
     1
284
     0
285
     0
286
     0
287
     3
288
     0
  0
ENDTAB
  0
TABLE
  2
BLOCK_RECORD
  5
1
330
0
100
AcDbSymbolTable
 70
     1
  0
BLOCK_RECORD
  5
1F
330
1
100
AcDbSymbolTableRecord
100
AcDbBlockTableRecord
  2
*MODEL_SPACE
  0
BLOCK_RECORD
  5
1B
330
1
100
AcDbSymbolTableRecord
100
AcDbBlockTableRecord
  2
*PAPER_SPACE
  0
ENDTAB
  0
ENDSEC
  0
SECTION
  2
BLOCKS
  0
BLOCK
  5
20
330
1F
100
AcDbEntity
  8
0
100
AcDbBlockBegin
  2
*MODEL_SPACE
 70
     0
 10
0.0
 20
0.0
 30
0.0
  3
*MODEL_SPACE
  1

  0
ENDBLK
  5
21
330
1F
100
AcDbEntity
  8
0
100
AcDbBlockEnd
  0
BLOCK
  5
1C
330
1B
100
AcDbEntity
 67
     1
  8
0
100
AcDbBlockBegin
  2
*PAPER_SPACE
 70
     0
 10
0.0
 20
0.0
 30
0.0
  3
*PAPER_SPACE
  1

  0
ENDBLK
  5
1D
330
1B
100
AcDbEntity
 67
     1
  8
0
100
AcDbBlockEnd
  0
ENDSEC
  0
SECTION
  2
ENTITIES
  0
LINE
  5
6C
330
1F
100
AcDbEntity
  8
0
100
AcDbLine
 10
3.992948184251031
 20
2.400233235768127
 30
0.0
 11
4.332479007792148
 21
2.403848675586047
 31
0.0
  0
LINE
  5
6D
330
1F
100
AcDbEntity
  8
0
100
AcDbLine
 10
5.752595096177693
 20
2.672587744170048
 30
0.0
 11
6.091248429330425
 21
2.796754855603912
 31
0.0
  0
LINE
  5
6E
330
1F
100
AcDbEntity
  8
0
100
AcDbLine
 10
4.698154396913283
 20
2.436510530838646
 30
0.0
 11
5.05454725040657
 21
2.492077477811857
 31
0.0
  0
LINE
  5
6F
330
1F
100
AcDbEntity
  8
0
100
AcDbLine
 10
5.406532003948525
 20
2.570882838615261
 30
0.0
 11
5.752595096177693
 21
2.672587744170048
 31
0.0
  0
LINE
  5
70
330
1F
100
AcDbEntity
  8
0
100
AcDbLine
 10
6.091248429330425
 20
2.796754855603912
 30
0.0
 11
6.421035768173101
 21
2.942850244840988
 31
0.0
  0
LINE
  5
71
330
1F
100
AcDbEntity
  8
0
100
AcDbLine
 10
4.332479007792148
 20
2.403848675586047
 30
0.0
 11
4.698154396913283
 21
2.436510530838646
 31
0.0
  0
LINE
  5
72
330
1F
100
AcDbEntity
  8
0
100
AcDbLine
 10
6.421035768173101
 20
2.942850244840988
 30
0.0
 11
6.740539001925672
 21
3.110245690533921
 31
0.0
  0
LINE
  5
73
330
1F
100
AcDbEntity
  8
0
100
AcDbLine
 10
5.05454725040657
 20
2.492077477811857
 30
0.0
 11
5.406532003948525
 21
2.570882838615261
 31
0.0
  0
LINE
  5
74
330
1F
100
AcDbEntity
  8
0
100
AcDbLine
 10
6.740539001925672
 20
3.110245690533921
 30
0.0
 11
7.048384242247234
 21
3.298221379463707
 31
0.0
  0
LINE
  5
75
330
1F
100
AcDbEntity
  8
0
100
AcDbLine
 10
7.048384242247234
 20
3.298221379463707
 30
0.0
 11
7.343247731059171
 21
3.505969001790672
 31
0.0
  0
LINE
  5
76
330
1F
100
AcDbEntity
  8
0
100
AcDbLine
 10
8.580712715893542
 20
4.807268558664188
 30
0.0
 11
8.773379122733742
 21
5.112200038331878
 31
0.0
  0
LINE
  5
77
330
1F
100
AcDbEntity
  8
0
100
AcDbLine
 10
9.096773090665202
 20
5.756615349099784
 30
0.0
 11
9.226110032960301
 21
6.093328145077137
 31
0.0
  0
LINE
  5
78
330
1F
100
AcDbEntity
  8
0
100
AcDbLine
 10
8.945646168147935
 20
5.429103204427786
 30
0.0
 11
9.096773090665202
 21
5.756615349099784
 31
0.0
  0
LINE
  5
79
330
1F
100
AcDbEntity
  8
0
100
AcDbLine
 10
9.515887624923241
 20
7.502766296922738
 30
0.0
 11
9.529881225133895
 21
7.863193447357193
 31
0.0
  0
LINE
  5
7A
330
1F
100
AcDbEntity
  8
0
100
AcDbLine
 10
9.417285432015683
 20
6.788530790384494
 30
0.0
 11
9.478301819938475
 21
7.144031215169036
 31
0.0
  0
LINE
  5
7B
330
1F
100
AcDbEntity
  8
0
100
AcDbLine
 10
9.333100836289526
 20
6.437793701584813
 30
0.0
 11
9.417285432015683
 21
6.788530790384494
 31
0.0
  0
LINE
  5
7C
330
1F
100
AcDbEntity
  8
0
100
AcDbLine
 10
9.529881225133895
 20
7.863193447357193
 30
0.0
 11
9.520222447019277
 21
8.223762802159492
 31
0.0
  0
LINE
  5
7D
330
1F
100
AcDbEntity
  8
0
100
AcDbLine
 10
9.226110032960301
 20
6.093328145077137
 30
0.0
 11
9.333100836289526
 21
6.437793701584813
 31
0.0
  0
LINE
  5
7E
330
1F
100
AcDbEntity
  8
0
100
AcDbLine
 10
8.773379122733742
 20
5.112200038331878
 30
0.0
 11
8.945646168147935
 21
5.429103204427786
 31
0.0
  0
LINE
  5
7F
330
1F
100
AcDbEntity
  8
0
100
AcDbLine
 10
8.368475427911985
 20
4.51561999410849
 30
0.0
 11
8.580712715893542
 21
4.807268558664188
 31
0.0
  0
LINE
  5
80
330
1F
100
AcDbEntity
  8
0
100
AcDbLine
 10
8.137579895359748
 20
4.23850845579839
 30
0.0
 11
8.368475427911985
 21
4.51561999410849
 31
0.0
  0
LINE
  5
81
330
1F
100
AcDbEntity
  8
0
100
AcDbLine
 10
7.343247731059171
 20
3.505969001790672
 30
0.0
 11
7.623861532809006
 21
3.732595226850857
 31
0.0
  0
LINE
  5
82
330
1F
100
AcDbEntity
  8
0
100
AcDbLine
 10
9.478301819938475
 20
7.144031215169036
 30
0.0
 11
9.515887624923241
 21
7.502766296922738
 31
0.0
  0
LINE
  5
83
330
1F
100
AcDbEntity
  8
0
100
AcDbLine
 10
7.889018986686117
 20
3.977125544542653
 30
0.0
 11
8.137579895359748
 21
4.23850845579839
 31
0.0
  0
LINE
  5
84
330
1F
100
AcDbEntity
  8
0
100
AcDbLine
 10
7.623861532809006
 20
3.732595226850857
 30
0.0
 11
7.889018986686117
 21
3.977125544542653
 31
0.0
  0
LINE
  5
85
330
1F
100
AcDbEntity
  8
0
100
AcDbLine
 10
8.806512019232835
 20
10.62308423494097
 30
0.0
 11
8.617526065868017
 21
10.93031030975862
 31
0.0
  0
LINE
  5
86
330
1F
100
AcDbEntity
  8
0
100
AcDbLine
 10
9.520222447019277
 20
8.223762802159492
 30
0.0
 11
9.486952824064009
 21
8.58292388552671
 31
0.0
  0
LINE
  5
87
330
1F
100
AcDbEntity
  8
0
100
AcDbLine
 10
8.181264106095322
 20
11.504357567135
 30
0.0
 11
7.935864059480503
 21
11.76871030258283
 31
0.0
  0
LINE
  5
88
330
1F
100
AcDbEntity
  8
0
100
AcDbLine
 10
9.486952824064009
 20
8.58292388552671
 30
0.0
 11
9.430215418191308
 21
8.939132277331316
 31
0.0
  0
LINE
  5
89
330
1F
100
AcDbEntity
  8
0
100
AcDbLine
 10
9.350254204585834
 20
9.290856254244876
 30
0.0
 11
9.24741302258161
 21
9.636583376266321
 31
0.0
  0
LINE
  5
8A
330
1F
100
AcDbEntity
  8
0
100
AcDbLine
 10
8.974956137182609
 20
10.30413262302242
 30
0.0
 11
8.806512019232835
 21
10.62308423494097
 31
0.0
  0
LINE
  5
8B
330
1F
100
AcDbEntity
  8
0
100
AcDbLine
 10
8.408810931141279
 20
11.22448975185697
 30
0.0
 11
8.181264106095322
 21
11.504357567135
 31
0.0
  0
LINE
  5
8C
330
1F
100
AcDbEntity
  8
0
100
AcDbLine
 10
7.935864059480503
 20
11.76871030258283
 30
0.0
 11
7.673666030266376
 21
12.01641122121933
 31
0.0
  0
LINE
  5
8D
330
1F
100
AcDbEntity
  8
0
100
AcDbLine
 10
7.673666030266376
 20
12.01641122121933
 30
0.0
 11
7.395797490031515
 21
12.24639519015015
 31
0.0
  0
LINE
  5
8E
330
1F
100
AcDbEntity
  8
0
100
AcDbLine
 10
8.617526065868017
 20
10.93031030975862
 30
0.0
 11
8.408810931141279
 21
11.22448975185697
 31
0.0
  0
LINE
  5
8F
330
1F
100
AcDbEntity
  8
0
100
AcDbLine
 10
7.395797490031515
 20
12.24639519015015
 30
0.0
 11
7.10345329475169
 21
12.45767326071859
 31
0.0
  0
LINE
  5
90
330
1F
100
AcDbEntity
  8
0
100
AcDbLine
 10
7.10345329475169
 20
12.45767326071859
 30
0.0
 11
6.79789054682472
 21
12.64933692106303
 31
0.0
  0
LINE
  5
91
330
1F
100
AcDbEntity
  8
0
100
AcDbLine
 10
6.79789054682472
 20
12.64933692106303
 30
0.0
 11
6.480423189437289
 21
12.82056200278455
 31
0.0
  0
LINE
  5
92
330
1F
100
AcDbEntity
  8
0
100
AcDbLine
 10
9.24741302258161
 20
9.636583376266321
 30
0.0
 11
9.12213409712687
 21
9.9748269903288
 31
0.0
  0
LINE
  5
93
330
1F
100
AcDbEntity
  8
0
100
AcDbLine
 10
9.430215418191308
 20
8.939132277331316
 30
0.0
 11
9.350254204585834
 21
9.290856254244876
 31
0.0
  0
LINE
  5
94
330
1F
100
AcDbEntity
  8
0
100
AcDbLine
 10
9.12213409712687
 20
9.9748269903288
 30
0.0
 11
8.974956137182609
 21
10.30413262302242
 31
0.0
  0
LINE
  5
95
330
1F
100
AcDbEntity
  8
0
100
AcDbLine
 10
6.480423189437289
 20
12.82056200278455
 30
0.0
 11
6.152416356506344
 21
12.97061222493667
 31
0.0
  0
LINE
  5
96
330
1F
100
AcDbEntity
  8
0
100
AcDbLine
 10
4.404898029508317
 20
13.3839883517452
 30
0.0
 11
4.059460357381944
 21
13.39626364235557
 31
0.0
  0
LINE
  5
97
330
1F
100
AcDbEntity
  8
0
100
AcDbLine
 10
-5.725114112311434
 20
13.10509744388397
 30
0.0
 11
-6.061745448542683
 21
12.97839838051755
 31
0.0
  0
LINE
  5
98
330
1F
100
AcDbEntity
  8
0
100
AcDbLine
 10
-4.317794206842728
 20
13.38503077794127
 30
0.0
 11
-4.675747239043161
 21
13.34977548146394
 31
0.0
  0
LINE
  5
99
330
1F
100
AcDbEntity
  8
0
100
AcDbLine
 10
-6.061745448542683
 20
12.97839838051755
 30
0.0
 11
-6.389369516028271
 21
12.82995384678482
 31
0.0
  0
LINE
  5
9A
330
1F
100
AcDbEntity
  8
0
100
AcDbLine
 10
-6.389369516028271
 20
12.82995384678482
 30
0.0
 11
-6.706583378214036
 21
12.66039950496857
 31
0.0
  0
LINE
  5
9B
330
1F
100
AcDbEntity
  8
0
100
AcDbLine
 10
-5.38091701439566
 20
13.20950849204401
 30
0.0
 11
-5.725114112311434
 21
13.10509744388397
 31
0.0
  0
LINE
  5
9C
330
1F
100
AcDbEntity
  8
0
100
AcDbLine
 10
-5.030628059612527
 20
13.29118442085933
 30
0.0
 11
-5.38091701439566
 21
13.20950849204401
 31
0.0
  0
LINE
  5
9D
330
1F
100
AcDbEntity
  8
0
100
AcDbLine
 10
-4.675747239043161
 20
13.34977548146394
 30
0.0
 11
-5.030628059612527
 21
13.29118442085933
 31
0.0
  0
LINE
  5
9E
330
1F
100
AcDbEntity
  8
0
100
AcDbLine
 10
4.059460357381944
 20
13.39626364235557
 30
0.0
 11
-3.974665694985254
 21
13.39626364235557
 31
0.0
  0
LINE
  5
9F
330
1F
100
AcDbEntity
  8
0
100
AcDbLine
 10
4.76375464586824
 20
13.34758120255813
 30
0.0
 11
4.404898029508317
 21
13.3839883517452
 31
0.0
  0
LINE
  5
A0
330
1F
100
AcDbEntity
  8
0
100
AcDbLine
 10
5.119453592716483
 20
13.28773297093497
 30
0.0
 11
4.76375464586824
 21
13.34758120255813
 31
0.0
  0
LINE
  5
A1
330
1F
100
AcDbEntity
  8
0
100
AcDbLine
 10
6.152416356506344
 20
12.97061222493667
 30
0.0
 11
5.815280502500563
 21
13.09884236008747
 31
0.0
  0
LINE
  5
A2
330
1F
100
AcDbEntity
  8
0
100
AcDbLine
 10
-3.974665694985254
 20
13.39626364235557
 30
0.0
 11
-4.317794206842728
 21
13.38503077794127
 31
0.0
  0
LINE
  5
A3
330
1F
100
AcDbEntity
  8
0
100
AcDbLine
 10
5.470465337376681
 20
13.2047010088489
 30
0.0
 11
5.119453592716483
 21
13.28773297093497
 31
0.0
  0
LINE
  5
A4
330
1F
100
AcDbEntity
  8
0
100
AcDbLine
 10
5.815280502500563
 20
13.09884236008747
 30
0.0
 11
5.470465337376681
 21
13.2047010088489
 31
0.0
  0
LINE
  5
A5
330
1F
100
AcDbEntity
  8
0
100
AcDbLine
 10
-8.52852705466994
 20
10.95396303476268
 30
0.0
 11
-8.718465146846954
 21
10.64851773633547
 31
0.0
  0
LINE
  5
A6
330
1F
100
AcDbEntity
  8
0
100
AcDbLine
 10
-6.706583378214036
 20
12.66039950496857
 30
0.0
 11
-7.01202867664074
 21
12.47046141279185
 31
0.0
  0
LINE
  5
A7
330
1F
100
AcDbEntity
  8
0
100
AcDbLine
 10
-9.036464022395629
 20
10.00367980666456
 30
0.0
 11
-9.163163085762164
 21
9.667048470433048
 31
0.0
  0
LINE
  5
A8
330
1F
100
AcDbEntity
  8
0
100
AcDbLine
 10
-7.01202867664074
 20
12.47046141279185
 30
0.0
 11
-7.304397447649148
 21
12.26095291432442
 31
0.0
  0
LINE
  5
A9
330
1F
100
AcDbEntity
  8
0
100
AcDbLine
 10
-7.582437723275961
 20
12.03277115712132
 30
0.0
 11
-7.844958892375915
 21
11.78689325049764
 31
0.0
  0
LINE
  5
AA
330
1F
100
AcDbEntity
  8
0
100
AcDbLine
 10
-8.31901855620248
 20
11.24633180577111
 30
0.0
 11
-8.52852705466994
 21
10.95396303476268
 31
0.0
  0
LINE
  5
AB
330
1F
100
AcDbEntity
  8
0
100
AcDbLine
 10
-8.888019488662787
 20
10.33130387415046
 30
0.0
 11
-9.036464022395629
 21
10.00367980666456
 31
0.0
  0
LINE
  5
AC
330
1F
100
AcDbEntity
  8
0
100
AcDbLine
 10
-9.267574133922013
 20
9.322851372517883
 30
0.0
 11
-9.349250062737422
 21
8.972562417734522
 31
0.0
  0
LINE
  5
AD
330
1F
100
AcDbEntity
  8
0
100
AcDbLine
 10
-9.163163085762164
 20
9.667048470433048
 30
0.0
 11
-9.267574133922013
 21
9.322851372517883
 31
0.0
  0
LINE
  5
AE
330
1F
100
AcDbEntity
  8
0
100
AcDbLine
 10
-9.349250062737422
 20
8.972562417734522
 30
0.0
 11
-9.407841123342074
 21
8.617681597164813
 31
0.0
  0
LINE
  5
AF
330
1F
100
AcDbEntity
  8
0
100
AcDbLine
 10
-8.718465146846954
 20
10.64851773633547
 30
0.0
 11
-8.888019488662787
 21
10.33130387415046
 31
0.0
  0
LINE
  5
B0
330
1F
100
AcDbEntity
  8
0
100
AcDbLine
 10
-9.407841123342074
 20
8.617681597164813
 30
0.0
 11
-9.443096419819431
 21
8.259728564964531
 31
0.0
  0
LINE
  5
B1
330
1F
100
AcDbEntity
  8
0
100
AcDbLine
 10
-9.443096419819431
 20
8.259728564964531
 30
0.0
 11
-9.454864983577467
 21
7.900236130971689
 31
0.0
  0
LINE
  5
B2
330
1F
100
AcDbEntity
  8
0
100
AcDbLine
 10
-7.844958892375915
 20
11.78689325049764
 30
0.0
 11
-8.090836798999385
 21
11.52437208139793
 31
0.0
  0
LINE
  5
B3
330
1F
100
AcDbEntity
  8
0
100
AcDbLine
 10
-7.304397447649148
 20
12.26095291432442
 30
0.0
 11
-7.582437723275961
 21
12.03277115712132
 31
0.0
  0
LINE
  5
B4
330
1F
100
AcDbEntity
  8
0
100
AcDbLine
 10
-8.090836798999385
 20
11.52437208139793
 30
0.0
 11
-8.31901855620248
 21
11.24633180577111
 31
0.0
  0
LINE
  5
B5
330
1F
100
AcDbEntity
  8
0
100
AcDbLine
 10
-9.454864983577467
 20
7.900236130971689
 30
0.0
 11
-9.443096419819433
 21
7.540743696978847
 31
0.0
  0
LINE
  5
B6
330
1F
100
AcDbEntity
  8
0
100
AcDbLine
 10
-9.036464022395648
 20
5.796792455278815
 30
0.0
 11
-8.888019488662803
 21
5.469168387792919
 31
0.0
  0
LINE
  5
B7
330
1F
100
AcDbEntity
  8
0
100
AcDbLine
 10
-8.52852705466992
 20
4.84650922718065
 30
0.0
 11
-8.319018556202504
 21
4.554140456172315
 31
0.0
  0
LINE
  5
B8
330
1F
100
AcDbEntity
  8
0
100
AcDbLine
 10
-8.718465146846954
 20
5.151954525607903
 30
0.0
 11
-8.52852705466992
 21
4.84650922718065
 31
0.0
  0
LINE
  5
B9
330
1F
100
AcDbEntity
  8
0
100
AcDbLine
 10
-7.304397447649192
 20
3.539519347619
 30
0.0
 11
-7.012028676640747
 21
3.330010849151533
 31
0.0
  0
LINE
  5
BA
330
1F
100
AcDbEntity
  8
0
100
AcDbLine
 10
-7.844958892375913
 20
4.013579011445741
 30
0.0
 11
-7.582437723275926
 21
3.767701104822017
 31
0.0
  0
LINE
  5
BB
330
1F
100
AcDbEntity
  8
0
100
AcDbLine
 10
-8.090836798999378
 20
4.276100180545453
 30
0.0
 11
-7.844958892375913
 21
4.013579011445741
 31
0.0
  0
LINE
  5
BC
330
1F
100
AcDbEntity
  8
0
100
AcDbLine
 10
-7.012028676640747
 20
3.330010849151533
 30
0.0
 11
-6.706583378214032
 21
3.140072756974805
 31
0.0
  0
LINE
  5
BD
330
1F
100
AcDbEntity
  8
0
100
AcDbLine
 10
-8.319018556202504
 20
4.554140456172315
 30
0.0
 11
-8.090836798999378
 21
4.276100180545453
 31
0.0
  0
LINE
  5
BE
330
1F
100
AcDbEntity
  8
0
100
AcDbLine
 10
-8.888019488662803
 20
5.469168387792919
 30
0.0
 11
-8.718465146846954
 21
5.151954525607903
 31
0.0
  0
LINE
  5
BF
330
1F
100
AcDbEntity
  8
0
100
AcDbLine
 10
-9.163163085762168
 20
6.13342379151033
 30
0.0
 11
-9.036464022395648
 21
5.796792455278815
 31
0.0
  0
LINE
  5
C0
330
1F
100
AcDbEntity
  8
0
100
AcDbLine
 10
-9.267574133922006
 20
6.477620889425451
 30
0.0
 11
-9.163163085762168
 21
6.13342379151033
 31
0.0
  0
LINE
  5
C1
330
1F
100
AcDbEntity
  8
0
100
AcDbLine
 10
-9.443096419819433
 20
7.540743696978847
 30
0.0
 11
-9.407841123342072
 21
7.182790664778566
 31
0.0
  0
LINE
  5
C2
330
1F
100
AcDbEntity
  8
0
100
AcDbLine
 10
-7.582437723275926
 20
3.767701104822017
 30
0.0
 11
-7.304397447649192
 21
3.539519347619
 31
0.0
  0
LINE
  5
C3
330
1F
100
AcDbEntity
  8
0
100
AcDbLine
 10
-9.349250062737422
 20
6.827909844208857
 30
0.0
 11
-9.267574133922006
 21
6.477620889425451
 31
0.0
  0
LINE
  5
C4
330
1F
100
AcDbEntity
  8
0
100
AcDbLine
 10
-9.407841123342072
 20
7.182790664778566
 30
0.0
 11
-9.349250062737422
 21
6.827909844208857
 31
0.0
  0
LINE
  5
C5
330
1F
100
AcDbEntity
  8
0
100
AcDbLine
 10
-4.324516502346088
 20
2.416103572320011
 30
0.0
 11
-3.9814173292477
 21
2.400233235768127
 31
0.0
  0
LINE
  5
C6
330
1F
100
AcDbEntity
  8
0
100
AcDbLine
 10
-6.706583378214032
 20
3.140072756974805
 30
0.0
 11
-6.389369516028297
 21
2.970518415158555
 31
0.0
  0
LINE
  5
C7
330
1F
100
AcDbEntity
  8
0
100
AcDbLine
 10
-6.389369516028297
 20
2.970518415158555
 30
0.0
 11
-6.061745448542642
 21
2.822073881425831
 31
0.0
  0
LINE
  5
C8
330
1F
100
AcDbEntity
  8
0
100
AcDbLine
 10
-5.725114112311425
 20
2.695374818059411
 30
0.0
 11
-5.380917014395667
 21
2.590963769899368
 31
0.0
  0
LINE
  5
C9
330
1F
100
AcDbEntity
  8
0
100
AcDbLine
 10
-4.675747239043158
 20
2.450696780479441
 30
0.0
 11
-4.324516502346088
 21
2.416103572320011
 31
0.0
  0
LINE
  5
CA
330
1F
100
AcDbEntity
  8
0
100
AcDbLine
 10
-3.9814173292477
 20
2.400233235768127
 30
0.0
 11
3.992948184251031
 21
2.400233235768127
 31
0.0
  0
LINE
  5
CB
330
1F
100
AcDbEntity
  8
0
100
AcDbLine
 10
-5.380917014395667
 20
2.590963769899368
 30
0.0
 11
-5.030628059612538
 21
2.509287841084048
 31
0.0
  0
LINE
  5
CC
330
1F
100
AcDbEntity
  8
0
100
AcDbLine
 10
-6.061745448542642
 20
2.822073881425831
 30
0.0
 11
-5.725114112311425
 21
2.695374818059411
 31
0.0
  0
LINE
  5
CD
330
1F
100
AcDbEntity
  8
0
100
AcDbLine
 10
-5.030628059612538
 20
2.509287841084048
 30
0.0
 11
-4.675747239043158
 21
2.450696780479441
 31
0.0
  0
LINE
  5
CE
330
1F
100
AcDbEntity
  8
0
100
AcDbLine
 10
4.014243657960461
 20
0.4003466132818627
 30
0.0
 11
4.432245193952096
 21
0.4047976359649201
 31
0.0
  0
LINE
  5
CF
330
1F
100
AcDbEntity
  8
0
100
AcDbLine
 10
4.432245193952096
 20
0.4047976359649201
 30
0.0
 11
4.941434652843891
 21
0.450278061766727
 31
0.0
  0
LINE
  5
D0
330
1F
100
AcDbEntity
  8
0
100
AcDbLine
 10
4.941434652843891
 20
0.450278061766727
 30
0.0
 11
5.427481547994199
 21
0.5260600023544153
 31
0.0
  0
LINE
  5
D1
330
1F
100
AcDbEntity
  8
0
100
AcDbLine
 10
5.427481547994199
 20
0.5260600023544153
 30
0.0
 11
5.907516697189831
 21
0.6335343822814191
 31
0.0
  0
LINE
  5
D2
330
1F
100
AcDbEntity
  8
0
100
AcDbLine
 10
5.907516697189831
 20
0.6335343822814191
 30
0.0
 11
6.379475912575906
 21
0.7722390534942981
 31
0.0
  0
LINE
  5
D3
330
1F
100
AcDbEntity
  8
0
100
AcDbLine
 10
6.379475912575906
 20
0.7722390534942981
 30
0.0
 11
6.841329733429602
 21
0.9415775752983371
 31
0.0
  0
LINE
  5
D4
330
1F
100
AcDbEntity
  8
0
100
AcDbLine
 10
6.841329733429602
 20
0.9415775752983371
 30
0.0
 11
7.291092152998129
 21
1.140821779098473
 31
0.0
  0
LINE
  5
D5
330
1F
100
AcDbEntity
  8
0
100
AcDbLine
 10
7.291092152998129
 20
1.140821779098473
 30
0.0
 11
7.726829158478785
 21
1.369114899580076
 31
0.0
  0
LINE
  5
D6
330
1F
100
AcDbEntity
  8
0
100
AcDbLine
 10
7.726829158478785
 20
1.369114899580076
 30
0.0
 11
8.146667047421147
 21
1.625475258864267
 31
0.0
  0
LINE
  5
D7
330
1F
100
AcDbEntity
  8
0
100
AcDbLine
 10
8.146667047421147
 20
1.625475258864267
 30
0.0
 11
8.548800484793041
 21
1.908800487799171
 31
0.0
  0
LINE
  5
D8
330
1F
100
AcDbEntity
  8
0
100
AcDbLine
 10
8.548800484793041
 20
1.908800487799171
 30
0.0
 11
8.931500266059034
 21
2.217872266232162
 31
0.0
  0
LINE
  5
D9
330
1F
100
AcDbEntity
  8
0
100
AcDbLine
 10
8.931500266059034
 20
2.217872266232162
 30
0.0
 11
9.29312075288789
 21
2.551361561875737
 31
0.0
  0
LINE
  5
DA
330
1F
100
AcDbEntity
  8
0
100
AcDbLine
 10
9.29312075288789
 20
2.551361561875737
 30
0.0
 11
9.632106949531144
 21
2.907834345254836
 31
0.0
  0
LINE
  5
DB
330
1F
100
AcDbEntity
  8
0
100
AcDbLine
 10
9.632106949531144
 20
2.907834345254836
 30
0.0
 11
9.94700118941532
 21
3.285757756135668
 31
0.0
  0
LINE
  5
DC
330
1F
100
AcDbEntity
  8
0
100
AcDbLine
 10
9.94700118941532
 20
3.285757756135668
 30
0.0
 11
10.23644940322557
 21
3.683506694947546
 31
0.0
  0
LINE
  5
DD
330
1F
100
AcDbEntity
  8
0
100
AcDbLine
 10
10.23644940322557
 20
3.683506694947546
 30
0.0
 11
10.49920694150493
 21
4.099370810832673
 31
0.0
  0
LINE
  5
DE
330
1F
100
AcDbEntity
  8
0
100
AcDbLine
 10
10.49920694150493
 20
4.099370810832673
 30
0.0
 11
10.73414392674323
 21
4.531561856287937
 31
0.0
  0
LINE
  5
DF
330
1F
100
AcDbEntity
  8
0
100
AcDbLine
 10
10.73414392674323
 20
4.531561856287937
 30
0.0
 11
10.94025011193485
 21
4.978221376761896
 31
0.0
  0
LINE
  5
E0
330
1F
100
AcDbEntity
  8
0
100
AcDbLine
 10
10.94025011193485
 20
4.978221376761896
 30
0.0
 11
11.11663922471998
 21
5.437428702154919
 31
0.0
  0
LINE
  5
E1
330
1F
100
AcDbEntity
  8
0
100
AcDbLine
 10
11.11663922471998
 20
5.437428702154919
 30
0.0
 11
11.26255277842344
 21
5.90720920584749
 31
0.0
  0
LINE
  5
E2
330
1F
100
AcDbEntity
  8
0
100
AcDbLine
 10
11.26255277842344
 20
5.90720920584749
 30
0.0
 11
11.37736333360449
 21
6.385542795743964
 31
0.0
  0
LINE
  5
E3
330
1F
100
AcDbEntity
  8
0
100
AcDbLine
 10
11.37736333360449
 20
6.385542795743964
 30
0.0
 11
11.46057719609478
 21
6.870372600823448
 31
0.0
  0
LINE
  5
E4
330
1F
100
AcDbEntity
  8
0
100
AcDbLine
 10
11.46057719609478
 20
6.870372600823448
 30
0.0
 11
11.51183653992134
 21
7.359613815843717
 31
0.0
  0
LINE
  5
E5
330
1F
100
AcDbEntity
  8
0
100
AcDbLine
 10
11.51183653992134
 20
7.359613815843717
 30
0.0
 11
11.53092094598528
 21
7.851162666162018
 31
0.0
  0
LINE
  5
E6
330
1F
100
AcDbEntity
  8
0
100
AcDbLine
 10
11.53092094598528
 20
7.851162666162018
 30
0.0
 11
11.51774834988092
 21
8.342905454127402
 31
0.0
  0
LINE
  5
E7
330
1F
100
AcDbEntity
  8
0
100
AcDbLine
 10
11.51774834988092
 20
8.342905454127402
 30
0.0
 11
11.47237539477897
 21
8.832727648141994
 31
0.0
  0
LINE
  5
E8
330
1F
100
AcDbEntity
  8
0
100
AcDbLine
 10
11.47237539477897
 20
8.832727648141994
 30
0.0
 11
11.39499718785657
 21
9.31852297530925
 31
0.0
  0
LINE
  5
E9
330
1F
100
AcDbEntity
  8
0
100
AcDbLine
 10
11.39499718785657
 20
9.31852297530925
 30
0.0
 11
11.28594646132155
 21
9.798202478567665
 31
0.0
  0
LINE
  5
EA
330
1F
100
AcDbEntity
  8
0
100
AcDbLine
 10
11.28594646132155
 20
9.798202478567665
 30
0.0
 11
11.14569214163832
 21
10.26970349936657
 31
0.0
  0
LINE
  5
EB
330
1F
100
AcDbEntity
  8
0
100
AcDbLine
 10
11.14569214163832
 20
10.26970349936657
 30
0.0
 11
10.97483733310874
 21
10.73099854725452
 31
0.0
  0
LINE
  5
EC
330
1F
100
AcDbEntity
  8
0
100
AcDbLine
 10
10.97483733310874
 20
10.73099854725452
 30
0.0
 11
10.77411672447637
 21
11.18010401824598
 31
0.0
  0
LINE
  5
ED
330
1F
100
AcDbEntity
  8
0
100
AcDbLine
 10
10.77411672447637
 20
11.18010401824598
 30
0.0
 11
10.54439342970986
 21
11.61508872446688
 31
0.0
  0
LINE
  5
EE
330
1F
100
AcDbEntity
  8
0
100
AcDbLine
 10
10.54439342970986
 20
11.61508872446688
 30
0.0
 11
10.286655276547
 21
12.03408219841105
 31
0.0
  0
LINE
  5
EF
330
1F
100
AcDbEntity
  8
0
100
AcDbLine
 10
10.286655276547
 20
12.03408219841105
 30
0.0
 11
10.00201055875788
 21
12.43528273609642
 31
0.0
  0
LINE
  5
F0
330
1F
100
AcDbEntity
  8
0
100
AcDbLine
 10
10.00201055875788
 20
12.43528273609642
 30
0.0
 11
9.691683270399977
 21
12.81696514452531
 31
0.0
  0
LINE
  5
F1
330
1F
100
AcDbEntity
  8
0
100
AcDbLine
 10
9.691683270399977
 20
12.81696514452531
 30
0.0
 11
9.357007842546755
 21
13.17748816015064
 31
0.0
  0
LINE
  5
F2
330
1F
100
AcDbEntity
  8
0
100
AcDbLine
 10
9.357007842546755
 20
13.17748816015064
 30
0.0
 11
8.999423405135046
 21
13.51530150643122
 31
0.0
  0
LINE
  5
F3
330
1F
100
AcDbEntity
  8
0
100
AcDbLine
 10
8.999423405135046
 20
13.51530150643122
 30
0.0
 11
8.620467598595022
 21
13.82895256014096
 31
0.0
  0
LINE
  5
F4
330
1F
100
AcDbEntity
  8
0
100
AcDbLine
 10
8.620467598595022
 20
13.82895256014096
 30
0.0
 11
8.221769961876713
 21
14.11709259776139
 31
0.0
  0
LINE
  5
F5
330
1F
100
AcDbEntity
  8
0
100
AcDbLine
 10
8.221769961876713
 20
14.11709259776139
 30
0.0
 11
7.805044925312823
 21
14.37848259509211
 31
0.0
  0
LINE
  5
F6
330
1F
100
AcDbEntity
  8
0
100
AcDbLine
 10
7.805044925312823
 20
14.37848259509211
 30
0.0
 11
7.37208443843122
 21
14.61199855515357
 31
0.0
  0
LINE
  5
F7
330
1F
100
AcDbEntity
  8
0
100
AcDbLine
 10
7.37208443843122
 20
14.61199855515357
 30
0.0
 11
6.924750264440057
 21
14.81663634145767
 31
0.0
  0
LINE
  5
F8
330
1F
100
AcDbEntity
  8
0
100
AcDbLine
 10
6.924750264440057
 20
14.81663634145767
 30
0.0
 11
6.464965974500076
 21
14.99151599587201
 31
0.0
  0
LINE
  5
F9
330
1F
100
AcDbEntity
  8
0
100
AcDbLine
 10
6.464965974500076
 20
14.99151599587201
 30
0.0
 11
5.994708676222544
 21
15.13588552250804
 31
0.0
  0
LINE
  5
FA
330
1F
100
AcDbEntity
  8
0
100
AcDbLine
 10
5.994708676222544
 20
15.13588552250804
 30
0.0
 11
5.51600051195726
 21
15.24912412135904
 31
0.0
  0
LINE
  5
FB
330
1F
100
AcDbEntity
  8
0
100
AcDbLine
 10
5.51600051195726
 20
15.24912412135904
 30
0.0
 11
5.030899963422753
 21
15.33074485778928
 31
0.0
  0
LINE
  5
FC
330
1F
100
AcDbEntity
  8
0
100
AcDbLine
 10
5.030899963422753
 20
15.33074485778928
 30
0.0
 11
4.541493000078145
 21
15.38039675638993
 31
0.0
  0
LINE
  5
FD
330
1F
100
AcDbEntity
  8
0
100
AcDbLine
 10
4.541493000078145
 20
15.38039675638993
 30
0.0
 11
4.130486470049962
 21
15.39500206729249
 31
0.0
  0
LINE
  5
FE
330
1F
100
AcDbEntity
  8
0
100
AcDbLine
 10
-4.040103860629021
 20
15.39519281730829
 30
0.0
 11
-4.4486705381297
 21
15.38181772915921
 31
0.0
  0
LINE
  5
FF
330
1F
100
AcDbEntity
  8
0
100
AcDbLine
 10
-4.4486705381297
 20
15.38181772915921
 30
0.0
 11
-4.93693946907422
 21
15.33372743693482
 31
0.0
  0
LINE
  5
100
330
1F
100
AcDbEntity
  8
0
100
AcDbLine
 10
-4.93693946907422
 20
15.33372743693482
 30
0.0
 11
-5.421017723159903
 21
15.25380579372793
 31
0.0
  0
LINE
  5
101
330
1F
100
AcDbEntity
  8
0
100
AcDbLine
 10
-5.421017723159903
 20
15.25380579372793
 30
0.0
 11
-5.898832402985788
 21
15.14239503628476
 31
0.0
  0
LINE
  5
102
330
1F
100
AcDbEntity
  8
0
100
AcDbLine
 10
-5.898832402985788
 20
15.14239503628476
 30
0.0
 11
-6.368337432738796
 21
14.99997224257217
 31
0.0
  0
LINE
  5
103
330
1F
100
AcDbEntity
  8
0
100
AcDbLine
 10
-6.368337432738796
 20
14.99997224257217
 30
0.0
 11
-6.827522319800284
 21
14.82714728885861
 31
0.0
  0
LINE
  5
104
330
1F
100
AcDbEntity
  8
0
100
AcDbLine
 10
-6.827522319800284
 20
14.82714728885861
 30
0.0
 11
-7.274420763988648
 21
14.6246602381283
 31
0.0
  0
LINE
  5
105
330
1F
100
AcDbEntity
  8
0
100
AcDbLine
 10
-7.274420763988648
 20
14.6246602381283
 30
0.0
 11
-7.707119077557799
 21
14.39337817101846
 31
0.0
  0
LINE
  5
106
330
1F
100
AcDbEntity
  8
0
100
AcDbLine
 10
-7.707119077557799
 20
14.39337817101846
 30
0.0
 11
-8.123764379898555
 21
14.13429147284824
 31
0.0
  0
LINE
  5
107
330
1F
100
AcDbEntity
  8
0
100
AcDbLine
 10
-8.123764379898555
 20
14.13429147284824
 30
0.0
 11
-8.522572531862409
 21
13.84850959263467
 31
0.0
  0
LINE
  5
108
330
1F
100
AcDbEntity
  8
0
100
AcDbLine
 10
-8.522572531862409
 20
13.84850959263467
 30
0.0
 11
-8.901835775717206
 21
13.53725629226209
 31
0.0
  0
LINE
  5
109
330
1F
100
AcDbEntity
  8
0
100
AcDbLine
 10
-8.901835775717206
 20
13.53725629226209
 30
0.0
 11
-9.259930048026117
 21
13.20186440614825
 31
0.0
  0
LINE
  5
10A
330
1F
100
AcDbEntity
  8
0
100
AcDbLine
 10
-9.259930048026117
 20
13.20186440614825
 30
0.0
 11
-9.595321934140442
 21
12.84377013383888
 31
0.0
  0
LINE
  5
10B
330
1F
100
AcDbEntity
  8
0
100
AcDbLine
 10
-9.595321934140442
 20
12.84377013383888
 30
0.0
 11
-9.906575234512557
 21
12.46450688998455
 31
0.0
  0
LINE
  5
10C
330
1F
100
AcDbEntity
  8
0
100
AcDbLine
 10
-9.906575234512557
 20
12.46450688998455
 30
0.0
 11
-10.19235711472635
 21
12.06569873802045
 31
0.0
  0
LINE
  5
10D
330
1F
100
AcDbEntity
  8
0
100
AcDbLine
 10
-10.19235711472635
 20
12.06569873802045
 30
0.0
 11
-10.45144381289683
 21
11.64905343567925
 31
0.0
  0
LINE
  5
10E
330
1F
100
AcDbEntity
  8
0
100
AcDbLine
 10
-10.45144381289683
 20
11.64905343567925
 30
0.0
 11
-10.68272588000636
 21
11.21635512211062
 31
0.0
  0
LINE
  5
10F
330
1F
100
AcDbEntity
  8
0
100
AcDbLine
 10
-10.68272588000636
 20
11.21635512211062
 30
0.0
 11
-10.88521293073681
 21
10.76945667792187
 31
0.0
  0
LINE
  5
110
330
1F
100
AcDbEntity
  8
0
100
AcDbLine
 10
-10.88521293073681
 20
10.76945667792187
 30
0.0
 11
-11.05803788445025
 21
10.31027179086079
 31
0.0
  0
LINE
  5
111
330
1F
100
AcDbEntity
  8
0
100
AcDbLine
 10
-11.05803788445025
 20
10.31027179086079
 30
0.0
 11
-11.20046067816273
 21
9.84076676110807
 31
0.0
  0
LINE
  5
112
330
1F
100
AcDbEntity
  8
0
100
AcDbLine
 10
-11.20046067816273
 20
9.84076676110807
 30
0.0
 11
-11.31187143560606
 21
9.362952081281811
 31
0.0
  0
LINE
  5
113
330
1F
100
AcDbEntity
  8
0
100
AcDbLine
 10
-11.31187143560606
 20
9.362952081281811
 30
0.0
 11
-11.39179307881295
 21
8.878873827195951
 31
0.0
  0
LINE
  5
114
330
1F
100
AcDbEntity
  8
0
100
AcDbLine
 10
-11.39179307881295
 20
8.878873827195951
 30
0.0
 11
-11.43988337103735
 21
8.390604896251654
 31
0.0
  0
LINE
  5
115
330
1F
100
AcDbEntity
  8
0
100
AcDbLine
 10
-11.43988337103735
 20
8.390604896251654
 30
0.0
 11
-11.45593638226501
 21
7.900236130971689
 31
0.0
  0
LINE
  5
116
330
1F
100
AcDbEntity
  8
0
100
AcDbLine
 10
-11.45593638226501
 20
7.900236130971689
 30
0.0
 11
-11.43988337103735
 21
7.40986736569177
 31
0.0
  0
LINE
  5
117
330
1F
100
AcDbEntity
  8
0
100
AcDbLine
 10
-11.43988337103735
 20
7.40986736569177
 30
0.0
 11
-11.39179307881293
 21
6.921598434747382
 31
0.0
  0
LINE
  5
118
330
1F
100
AcDbEntity
  8
0
100
AcDbLine
 10
-11.39179307881293
 20
6.921598434747382
 30
0.0
 11
-11.31187143560609
 21
6.437520180661748
 31
0.0
  0
LINE
  5
119
330
1F
100
AcDbEntity
  8
0
100
AcDbLine
 10
-11.31187143560609
 20
6.437520180661748
 30
0.0
 11
-11.20046067816266
 21
5.959705500835039
 31
0.0
  0
LINE
  5
11A
330
1F
100
AcDbEntity
  8
0
100
AcDbLine
 10
-11.20046067816266
 20
5.959705500835039
 30
0.0
 11
-11.05803788445032
 21
5.490200471082771
 31
0.0
  0
LINE
  5
11B
330
1F
100
AcDbEntity
  8
0
100
AcDbLine
 10
-11.05803788445032
 20
5.490200471082771
 30
0.0
 11
-10.88521293073684
 21
5.03101558402151
 31
0.0
  0
LINE
  5
11C
330
1F
100
AcDbEntity
  8
0
100
AcDbLine
 10
-10.88521293073684
 20
5.03101558402151
 30
0.0
 11
-10.6827258800064
 21
4.584117139832801
 31
0.0
  0
LINE
  5
11D
330
1F
100
AcDbEntity
  8
0
100
AcDbLine
 10
-10.6827258800064
 20
4.584117139832801
 30
0.0
 11
-10.45144381289679
 21
4.151418826264079
 31
0.0
  0
LINE
  5
11E
330
1F
100
AcDbEntity
  8
0
100
AcDbLine
 10
-10.45144381289679
 20
4.151418826264079
 30
0.0
 11
-10.19235711472642
 21
3.734773523923016
 31
0.0
  0
LINE
  5
11F
330
1F
100
AcDbEntity
  8
0
100
AcDbLine
 10
-10.19235711472642
 20
3.734773523923016
 30
0.0
 11
-9.90657523451257
 21
3.335965371958875
 31
0.0
  0
LINE
  5
120
330
1F
100
AcDbEntity
  8
0
100
AcDbLine
 10
-9.90657523451257
 20
3.335965371958875
 30
0.0
 11
-9.595321934140138
 21
2.956702128104187
 31
0.0
  0
LINE
  5
121
330
1F
100
AcDbEntity
  8
0
100
AcDbLine
 10
-9.595321934140138
 20
2.956702128104187
 30
0.0
 11
-9.259930048026286
 21
2.598607855795311
 31
0.0
  0
LINE
  5
122
330
1F
100
AcDbEntity
  8
0
100
AcDbLine
 10
-9.259930048026286
 20
2.598607855795311
 30
0.0
 11
-8.901835775717288
 21
2.263215969681328
 31
0.0
  0
LINE
  5
123
330
1F
100
AcDbEntity
  8
0
100
AcDbLine
 10
-8.901835775717288
 20
2.263215969681328
 30
0.0
 11
-8.522572531862243
 21
1.951962669308621
 31
0.0
  0
LINE
  5
124
330
1F
100
AcDbEntity
  8
0
100
AcDbLine
 10
-8.522572531862243
 20
1.951962669308621
 30
0.0
 11
-8.123764379898773
 21
1.666180789095317
 31
0.0
  0
LINE
  5
125
330
1F
100
AcDbEntity
  8
0
100
AcDbLine
 10
-8.123764379898773
 20
1.666180789095317
 30
0.0
 11
-7.707119077557697
 21
1.407094090924872
 31
0.0
  0
LINE
  5
126
330
1F
100
AcDbEntity
  8
0
100
AcDbLine
 10
-7.707119077557697
 20
1.407094090924872
 30
0.0
 11
-7.274420763988768
 21
1.175812023815126
 31
0.0
  0
LINE
  5
127
330
1F
100
AcDbEntity
  8
0
100
AcDbLine
 10
-7.274420763988768
 20
1.175812023815126
 30
0.0
 11
-6.827522319799696
 21
0.973324973084539
 31
0.0
  0
LINE
  5
128
330
1F
100
AcDbEntity
  8
0
100
AcDbLine
 10
-6.827522319799696
 20
0.973324973084539
 30
0.0
 11
-6.368337432739014
 21
0.8005000193712515
 31
0.0
  0
LINE
  5
129
330
1F
100
AcDbEntity
  8
0
100
AcDbLine
 10
-6.368337432739014
 20
0.8005000193712515
 30
0.0
 11
-5.898832402985976
 21
0.6580772256586606
 31
0.0
  0
LINE
  5
12A
330
1F
100
AcDbEntity
  8
0
100
AcDbLine
 10
-5.898832402985976
 20
0.6580772256586606
 30
0.0
 11
-5.421017723159926
 21
0.5466664682154484
 31
0.0
  0
LINE
  5
12B
330
1F
100
AcDbEntity
  8
0
100
AcDbLine
 10
-5.421017723159926
 20
0.5466664682154484
 30
0.0
 11
-4.936939469074151
 21
0.4667448250085606
 31
0.0
  0
LINE
  5
12C
330
1F
100
AcDbEntity
  8
0
100
AcDbLine
 10
-4.936939469074151
 20
0.4667448250085606
 30
0.0
 11
-4.468837424639806
 21
0.4206407977378901
 31
0.0
  0
LINE
  5
12D
330
1F
100
AcDbEntity
  8
0
100
AcDbLine
 10
-4.468837424639806
 20
0.4206407977378901
 30
0.0
 11
-4.073830175980159
 21
0.4023694101386617
 31
0.0
  0
LINE
  5
12E
330
1F
100
AcDbEntity
  8
0
100
AcDbLine
 10
-4.040103860629021
 20
15.39519281730829
 30
0.0
 11
4.130486470049962
 21
15.39500206729249
 31
0.0
  0
LINE
  5
12F
330
1F
100
AcDbEntity
  8
0
100
AcDbLine
 10
-4.073830175980159
 20
0.4023694101386617
 30
0.0
 11
4.014243657960461
 21
0.4003466132818627
 31
0.0
  0
LINE
  5
130
330
1F
100
AcDbEntity
  8
0
100
AcDbLine
 10
3.93925909424016
 20
-15.39519281730832
 30
0.0
 11
4.357260630231795
 21
-15.39074179462526
 31
0.0
  0
LINE
  5
131
330
1F
100
AcDbEntity
  8
0
100
AcDbLine
 10
4.357260630231795
 20
-15.39074179462526
 30
0.0
 11
4.86645008912359
 21
-15.34526136882345
 31
0.0
  0
LINE
  5
132
330
1F
100
AcDbEntity
  8
0
100
AcDbLine
 10
4.86645008912359
 20
-15.34526136882345
 30
0.0
 11
5.352496984273897
 21
-15.26947942823576
 31
0.0
  0
LINE
  5
133
330
1F
100
AcDbEntity
  8
0
100
AcDbLine
 10
5.352496984273897
 20
-15.26947942823576
 30
0.0
 11
5.83253213346953
 21
-15.16200504830876
 31
0.0
  0
LINE
  5
134
330
1F
100
AcDbEntity
  8
0
100
AcDbLine
 10
5.83253213346953
 20
-15.16200504830876
 30
0.0
 11
6.304491348855604
 21
-15.02330037709588
 31
0.0
  0
LINE
  5
135
330
1F
100
AcDbEntity
  8
0
100
AcDbLine
 10
6.304491348855604
 20
-15.02330037709588
 30
0.0
 11
6.766345169709301
 21
-14.85396185529184
 31
0.0
  0
LINE
  5
136
330
1F
100
AcDbEntity
  8
0
100
AcDbLine
 10
6.766345169709301
 20
-14.85396185529184
 30
0.0
 11
7.216107589277827
 21
-14.6547176514917
 31
0.0
  0
LINE
  5
137
330
1F
100
AcDbEntity
  8
0
100
AcDbLine
 10
7.216107589277827
 20
-14.6547176514917
 30
0.0
 11
7.651844594758484
 21
-14.4264245310101
 31
0.0
  0
LINE
  5
138
330
1F
100
AcDbEntity
  8
0
100
AcDbLine
 10
7.651844594758484
 20
-14.4264245310101
 30
0.0
 11
8.071682483700846
 21
-14.17006417172591
 31
0.0
  0
LINE
  5
139
330
1F
100
AcDbEntity
  8
0
100
AcDbLine
 10
8.071682483700846
 20
-14.17006417172591
 30
0.0
 11
8.47381592107274
 21
-13.88673894279101
 31
0.0
  0
LINE
  5
13A
330
1F
100
AcDbEntity
  8
0
100
AcDbLine
 10
8.47381592107274
 20
-13.88673894279101
 30
0.0
 11
8.856515702338733
 21
-13.57766716435802
 31
0.0
  0
LINE
  5
13B
330
1F
100
AcDbEntity
  8
0
100
AcDbLine
 10
8.856515702338733
 20
-13.57766716435802
 30
0.0
 11
9.218136189167588
 21
-13.24417786871444
 31
0.0
  0
LINE
  5
13C
330
1F
100
AcDbEntity
  8
0
100
AcDbLine
 10
9.218136189167588
 20
-13.24417786871444
 30
0.0
 11
9.557122385810843
 21
-12.88770508533534
 31
0.0
  0
LINE
  5
13D
330
1F
100
AcDbEntity
  8
0
100
AcDbLine
 10
9.557122385810843
 20
-12.88770508533534
 30
0.0
 11
9.872016625695016
 21
-12.50978167445451
 31
0.0
  0
LINE
  5
13E
330
1F
100
AcDbEntity
  8
0
100
AcDbLine
 10
9.872016625695016
 20
-12.50978167445451
 30
0.0
 11
10.16146483950527
 21
-12.11203273564263
 31
0.0
  0
LINE
  5
13F
330
1F
100
AcDbEntity
  8
0
100
AcDbLine
 10
10.16146483950527
 20
-12.11203273564263
 30
0.0
 11
10.42422237778463
 21
-11.69616861975751
 31
0.0
  0
LINE
  5
140
330
1F
100
AcDbEntity
  8
0
100
AcDbLine
 10
10.42422237778463
 20
-11.69616861975751
 30
0.0
 11
10.65915936302293
 21
-11.26397757430224
 31
0.0
  0
LINE
  5
141
330
1F
100
AcDbEntity
  8
0
100
AcDbLine
 10
10.65915936302293
 20
-11.26397757430224
 30
0.0
 11
10.86526554821455
 21
-10.81731805382828
 31
0.0
  0
LINE
  5
142
330
1F
100
AcDbEntity
  8
0
100
AcDbLine
 10
10.86526554821455
 20
-10.81731805382828
 30
0.0
 11
11.04165466099968
 21
-10.35811072843526
 31
0.0
  0
LINE
  5
143
330
1F
100
AcDbEntity
  8
0
100
AcDbLine
 10
11.04165466099968
 20
-10.35811072843526
 30
0.0
 11
11.18756821470314
 21
-9.888330224742688
 31
0.0
  0
LINE
  5
144
330
1F
100
AcDbEntity
  8
0
100
AcDbLine
 10
11.18756821470314
 20
-9.888330224742688
 30
0.0
 11
11.30237876988419
 21
-9.409996634846214
 31
0.0
  0
LINE
  5
145
330
1F
100
AcDbEntity
  8
0
100
AcDbLine
 10
11.30237876988419
 20
-9.409996634846214
 30
0.0
 11
11.38559263237448
 21
-8.92516682976673
 31
0.0
  0
LINE
  5
146
330
1F
100
AcDbEntity
  8
0
100
AcDbLine
 10
11.38559263237448
 20
-8.92516682976673
 30
0.0
 11
11.43685197620104
 21
-8.435925614746461
 31
0.0
  0
LINE
  5
147
330
1F
100
AcDbEntity
  8
0
100
AcDbLine
 10
11.43685197620104
 20
-8.435925614746461
 30
0.0
 11
11.45593638226498
 21
-7.944376764428161
 31
0.0
  0
LINE
  5
148
330
1F
100
AcDbEntity
  8
0
100
AcDbLine
 10
11.45593638226498
 20
-7.944376764428161
 30
0.0
 11
11.44276378616062
 21
-7.452633976462777
 31
0.0
  0
LINE
  5
149
330
1F
100
AcDbEntity
  8
0
100
AcDbLine
 10
11.44276378616062
 20
-7.452633976462777
 30
0.0
 11
11.39739083105867
 21
-6.962811782448186
 31
0.0
  0
LINE
  5
14A
330
1F
100
AcDbEntity
  8
0
100
AcDbLine
 10
11.39739083105867
 20
-6.962811782448186
 30
0.0
 11
11.32001262413627
 21
-6.477016455280928
 31
0.0
  0
LINE
  5
14B
330
1F
100
AcDbEntity
  8
0
100
AcDbLine
 10
11.32001262413627
 20
-6.477016455280928
 30
0.0
 11
11.21096189760124
 21
-5.997336952022512
 31
0.0
  0
LINE
  5
14C
330
1F
100
AcDbEntity
  8
0
100
AcDbLine
 10
11.21096189760124
 20
-5.997336952022512
 30
0.0
 11
11.07070757791801
 21
-5.525835931223614
 31
0.0
  0
LINE
  5
14D
330
1F
100
AcDbEntity
  8
0
100
AcDbLine
 10
11.07070757791801
 20
-5.525835931223614
 30
0.0
 11
10.89985276938844
 21
-5.064540883335655
 31
0.0
  0
LINE
  5
14E
330
1F
100
AcDbEntity
  8
0
100
AcDbLine
 10
10.89985276938844
 20
-5.064540883335655
 30
0.0
 11
10.69913216075607
 21
-4.615435412344203
 31
0.0
  0
LINE
  5
14F
330
1F
100
AcDbEntity
  8
0
100
AcDbLine
 10
10.69913216075607
 20
-4.615435412344203
 30
0.0
 11
10.46940886598956
 21
-4.180450706123298
 31
0.0
  0
LINE
  5
150
330
1F
100
AcDbEntity
  8
0
100
AcDbLine
 10
10.46940886598956
 20
-4.180450706123298
 30
0.0
 11
10.2116707128267
 21
-3.761457232179129
 31
0.0
  0
LINE
  5
151
330
1F
100
AcDbEntity
  8
0
100
AcDbLine
 10
10.2116707128267
 20
-3.761457232179129
 30
0.0
 11
9.927025995037575
 21
-3.360256694493755
 31
0.0
  0
LINE
  5
152
330
1F
100
AcDbEntity
  8
0
100
AcDbLine
 10
9.927025995037575
 20
-3.360256694493755
 30
0.0
 11
9.616698706679676
 21
-2.978574286064874
 31
0.0
  0
LINE
  5
153
330
1F
100
AcDbEntity
  8
0
100
AcDbLine
 10
9.616698706679676
 20
-2.978574286064874
 30
0.0
 11
9.282023278826454
 21
-2.61805127043954
 31
0.0
  0
LINE
  5
154
330
1F
100
AcDbEntity
  8
0
100
AcDbLine
 10
9.282023278826454
 20
-2.61805127043954
 30
0.0
 11
8.924438841414744
 21
-2.280237924158959
 31
0.0
  0
LINE
  5
155
330
1F
100
AcDbEntity
  8
0
100
AcDbLine
 10
8.924438841414744
 20
-2.280237924158959
 30
0.0
 11
8.54548303487472
 21
-1.966586870449222
 31
0.0
  0
LINE
  5
156
330
1F
100
AcDbEntity
  8
0
100
AcDbLine
 10
8.54548303487472
 20
-1.966586870449222
 30
0.0
 11
8.14678539815641
 21
-1.678446832828791
 31
0.0
  0
LINE
  5
157
330
1F
100
AcDbEntity
  8
0
100
AcDbLine
 10
8.14678539815641
 20
-1.678446832828791
 30
0.0
 11
7.730060361592522
 21
-1.417056835498065
 31
0.0
  0
LINE
  5
158
330
1F
100
AcDbEntity
  8
0
100
AcDbLine
 10
7.730060361592522
 20
-1.417056835498065
 30
0.0
 11
7.297099874710919
 21
-1.183540875436606
 31
0.0
  0
LINE
  5
159
330
1F
100
AcDbEntity
  8
0
100
AcDbLine
 10
7.297099874710919
 20
-1.183540875436606
 30
0.0
 11
6.849765700719755
 21
-0.9789030891325099
 31
0.0
  0
LINE
  5
15A
330
1F
100
AcDbEntity
  8
0
100
AcDbLine
 10
6.849765700719755
 20
-0.9789030891325099
 30
0.0
 11
6.389981410779774
 21
-0.8040234347181717
 31
0.0
  0
LINE
  5
15B
330
1F
100
AcDbEntity
  8
0
100
AcDbLine
 10
6.389981410779774
 20
-0.8040234347181717
 30
0.0
 11
5.919724112502242
 21
-0.6596539080821384
 31
0.0
  0
LINE
  5
15C
330
1F
100
AcDbEntity
  8
0
100
AcDbLine
 10
5.919724112502242
 20
-0.6596539080821384
 30
0.0
 11
5.441015948236958
 21
-0.5464153092311405
 31
0.0
  0
LINE
  5
15D
330
1F
100
AcDbEntity
  8
0
100
AcDbLine
 10
5.441015948236958
 20
-0.5464153092311405
 30
0.0
 11
4.955915399702452
 21
-0.4647945728009004
 31
0.0
  0
LINE
  5
15E
330
1F
100
AcDbEntity
  8
0
100
AcDbLine
 10
4.955915399702452
 20
-0.4647945728009004
 30
0.0
 11
4.466508436357844
 21
-0.415142674200249
 31
0.0
  0
LINE
  5
15F
330
1F
100
AcDbEntity
  8
0
100
AcDbLine
 10
4.466508436357844
 20
-0.415142674200249
 30
0.0
 11
4.055501906329661
 21
-0.4005373632976925
 31
0.0
  0
LINE
  5
160
330
1F
100
AcDbEntity
  8
0
100
AcDbLine
 10
-4.115088424349322
 20
-0.4003466132818852
 30
0.0
 11
-4.523655101850001
 21
-0.4137217014309735
 31
0.0
  0
LINE
  5
161
330
1F
100
AcDbEntity
  8
0
100
AcDbLine
 10
-4.523655101850001
 20
-0.4137217014309735
 30
0.0
 11
-5.011924032794521
 21
-0.461811993655361
 31
0.0
  0
LINE
  5
162
330
1F
100
AcDbEntity
  8
0
100
AcDbLine
 10
-5.011924032794521
 20
-0.461811993655361
 30
0.0
 11
-5.496002286880205
 21
-0.5417336368622487
 31
0.0
  0
LINE
  5
163
330
1F
100
AcDbEntity
  8
0
100
AcDbLine
 10
-5.496002286880205
 20
-0.5417336368622487
 30
0.0
 11
-5.97381696670609
 21
-0.6531443943054158
 31
0.0
  0
LINE
  5
164
330
1F
100
AcDbEntity
  8
0
100
AcDbLine
 10
-5.97381696670609
 20
-0.6531443943054158
 30
0.0
 11
-6.443321996459098
 21
-0.7955671880180067
 31
0.0
  0
LINE
  5
165
330
1F
100
AcDbEntity
  8
0
100
AcDbLine
 10
-6.443321996459098
 20
-0.7955671880180067
 30
0.0
 11
-6.902506883520585
 21
-0.968392141731565
 31
0.0
  0
LINE
  5
166
330
1F
100
AcDbEntity
  8
0
100
AcDbLine
 10
-6.902506883520585
 20
-0.968392141731565
 30
0.0
 11
-7.34940532770895
 21
-1.170879192461882
 31
0.0
  0
LINE
  5
167
330
1F
100
AcDbEntity
  8
0
100
AcDbLine
 10
-7.34940532770895
 20
-1.170879192461882
 30
0.0
 11
-7.7821036412781
 21
-1.402161259571717
 31
0.0
  0
LINE
  5
168
330
1F
100
AcDbEntity
  8
0
100
AcDbLine
 10
-7.7821036412781
 20
-1.402161259571717
 30
0.0
 11
-8.198748943618856
 21
-1.661247957741937
 31
0.0
  0
LINE
  5
169
330
1F
100
AcDbEntity
  8
0
100
AcDbLine
 10
-8.198748943618856
 20
-1.661247957741937
 30
0.0
 11
-8.59755709558271
 21
-1.947029837955512
 31
0.0
  0
LINE
  5
16A
330
1F
100
AcDbEntity
  8
0
100
AcDbLine
 10
-8.59755709558271
 20
-1.947029837955512
 30
0.0
 11
-8.976820339437507
 21
-2.258283138328083
 31
0.0
  0
LINE
  5
16B
330
1F
100
AcDbEntity
  8
0
100
AcDbLine
 10
-8.976820339437507
 20
-2.258283138328083
 30
0.0
 11
-9.334914611746418
 21
-2.593675024441931
 31
0.0
  0
LINE
  5
16C
330
1F
100
AcDbEntity
  8
0
100
AcDbLine
 10
-9.334914611746418
 20
-2.593675024441931
 30
0.0
 11
-9.670306497860743
 21
-2.951769296751303
 31
0.0
  0
LINE
  5
16D
330
1F
100
AcDbEntity
  8
0
100
AcDbLine
 10
-9.670306497860743
 20
-2.951769296751303
 30
0.0
 11
-9.981559798232858
 21
-3.33103254060563
 31
0.0
  0
LINE
  5
16E
330
1F
100
AcDbEntity
  8
0
100
AcDbLine
 10
-9.981559798232858
 20
-3.33103254060563
 30
0.0
 11
-10.26734167844666
 21
-3.729840692569726
 31
0.0
  0
LINE
  5
16F
330
1F
100
AcDbEntity
  8
0
100
AcDbLine
 10
-10.26734167844666
 20
-3.729840692569726
 30
0.0
 11
-10.52642837661713
 21
-4.146485994910925
 31
0.0
  0
LINE
  5
170
330
1F
100
AcDbEntity
  8
0
100
AcDbLine
 10
-10.52642837661713
 20
-4.146485994910925
 30
0.0
 11
-10.75771044372666
 21
-4.579184308479557
 31
0.0
  0
LINE
  5
171
330
1F
100
AcDbEntity
  8
0
100
AcDbLine
 10
-10.75771044372666
 20
-4.579184308479557
 30
0.0
 11
-10.96019749445711
 21
-5.026082752668311
 31
0.0
  0
LINE
  5
172
330
1F
100
AcDbEntity
  8
0
100
AcDbLine
 10
-10.96019749445711
 20
-5.026082752668311
 30
0.0
 11
-11.13302244817055
 21
-5.485267639729391
 31
0.0
  0
LINE
  5
173
330
1F
100
AcDbEntity
  8
0
100
AcDbLine
 10
-11.13302244817055
 20
-5.485267639729391
 30
0.0
 11
-11.27544524188303
 21
-5.95477266948211
 31
0.0
  0
LINE
  5
174
330
1F
100
AcDbEntity
  8
0
100
AcDbLine
 10
-11.27544524188303
 20
-5.95477266948211
 30
0.0
 11
-11.38685599932636
 21
-6.432587349308368
 31
0.0
  0
LINE
  5
175
330
1F
100
AcDbEntity
  8
0
100
AcDbLine
 10
-11.38685599932636
 20
-6.432587349308368
 30
0.0
 11
-11.46677764253325
 21
-6.916665603394227
 31
0.0
  0
LINE
  5
176
330
1F
100
AcDbEntity
  8
0
100
AcDbLine
 10
-11.46677764253325
 20
-6.916665603394227
 30
0.0
 11
-11.51486793475765
 21
-7.404934534338525
 31
0.0
  0
LINE
  5
177
330
1F
100
AcDbEntity
  8
0
100
AcDbLine
 10
-11.51486793475765
 20
-7.404934534338525
 30
0.0
 11
-11.53092094598531
 21
-7.895303299618489
 31
0.0
  0
LINE
  5
178
330
1F
100
AcDbEntity
  8
0
100
AcDbLine
 10
-11.53092094598531
 20
-7.895303299618489
 30
0.0
 11
-11.51486793475766
 21
-8.38567206489841
 31
0.0
  0
LINE
  5
179
330
1F
100
AcDbEntity
  8
0
100
AcDbLine
 10
-11.51486793475766
 20
-8.38567206489841
 30
0.0
 11
-11.46677764253324
 21
-8.873940995842798
 31
0.0
  0
LINE
  5
17A
330
1F
100
AcDbEntity
  8
0
100
AcDbLine
 10
-11.46677764253324
 20
-8.873940995842798
 30
0.0
 11
-11.38685599932639
 21
-9.35801924992843
 31
0.0
  0
LINE
  5
17B
330
1F
100
AcDbEntity
  8
0
100
AcDbLine
 10
-11.38685599932639
 20
-9.35801924992843
 30
0.0
 11
-11.27544524188296
 21
-9.83583392975514
 31
0.0
  0
LINE
  5
17C
330
1F
100
AcDbEntity
  8
0
100
AcDbLine
 10
-11.27544524188296
 20
-9.83583392975514
 30
0.0
 11
-11.13302244817062
 21
-10.30533895950741
 31
0.0
  0
LINE
  5
17D
330
1F
100
AcDbEntity
  8
0
100
AcDbLine
 10
-11.13302244817062
 20
-10.30533895950741
 30
0.0
 11
-10.96019749445714
 21
-10.76452384656867
 31
0.0
  0
LINE
  5
17E
330
1F
100
AcDbEntity
  8
0
100
AcDbLine
 10
-10.96019749445714
 20
-10.76452384656867
 30
0.0
 11
-10.7577104437267
 21
-11.21142229075738
 31
0.0
  0
LINE
  5
17F
330
1F
100
AcDbEntity
  8
0
100
AcDbLine
 10
-10.7577104437267
 20
-11.21142229075738
 30
0.0
 11
-10.52642837661709
 21
-11.6441206043261
 31
0.0
  0
LINE
  5
180
330
1F
100
AcDbEntity
  8
0
100
AcDbLine
 10
-10.52642837661709
 20
-11.6441206043261
 30
0.0
 11
-10.26734167844672
 21
-12.06076590666716
 31
0.0
  0
LINE
  5
181
330
1F
100
AcDbEntity
  8
0
100
AcDbLine
 10
-10.26734167844672
 20
-12.06076590666716
 30
0.0
 11
-9.98155979823287
 21
-12.4595740586313
 31
0.0
  0
LINE
  5
182
330
1F
100
AcDbEntity
  8
0
100
AcDbLine
 10
-9.98155979823287
 20
-12.4595740586313
 30
0.0
 11
-9.67030649786044
 21
-12.83883730248599
 31
0.0
  0
LINE
  5
183
330
1F
100
AcDbEntity
  8
0
100
AcDbLine
 10
-9.67030649786044
 20
-12.83883730248599
 30
0.0
 11
-9.334914611746587
 21
-13.19693157479487
 31
0.0
  0
LINE
  5
184
330
1F
100
AcDbEntity
  8
0
100
AcDbLine
 10
-9.334914611746587
 20
-13.19693157479487
 30
0.0
 11
-8.97682033943759
 21
-13.53232346090885
 31
0.0
  0
LINE
  5
185
330
1F
100
AcDbEntity
  8
0
100
AcDbLine
 10
-8.97682033943759
 20
-13.53232346090885
 30
0.0
 11
-8.597557095582545
 21
-13.84357676128156
 31
0.0
  0
LINE
  5
186
330
1F
100
AcDbEntity
  8
0
100
AcDbLine
 10
-8.597557095582545
 20
-13.84357676128156
 30
0.0
 11
-8.198748943619075
 21
-14.12935864149486
 31
0.0
  0
LINE
  5
187
330
1F
100
AcDbEntity
  8
0
100
AcDbLine
 10
-8.198748943619075
 20
-14.12935864149486
 30
0.0
 11
-7.782103641277999
 21
-14.38844533966531
 31
0.0
  0
LINE
  5
188
330
1F
100
AcDbEntity
  8
0
100
AcDbLine
 10
-7.782103641277999
 20
-14.38844533966531
 30
0.0
 11
-7.34940532770907
 21
-14.61972740677505
 31
0.0
  0
LINE
  5
189
330
1F
100
AcDbEntity
  8
0
100
AcDbLine
 10
-7.34940532770907
 20
-14.61972740677505
 30
0.0
 11
-6.902506883519997
 21
-14.82221445750564
 31
0.0
  0
LINE
  5
18A
330
1F
100
AcDbEntity
  8
0
100
AcDbLine
 10
-6.902506883519997
 20
-14.82221445750564
 30
0.0
 11
-6.443321996459315
 21
-14.99503941121893
 31
0.0
  0
LINE
  5
18B
330
1F
100
AcDbEntity
  8
0
100
AcDbLine
 10
-6.443321996459315
 20
-14.99503941121893
 30
0.0
 11
-5.973816966706277
 21
-15.13746220493152
 31
0.0
  0
LINE
  5
18C
330
1F
100
AcDbEntity
  8
0
100
AcDbLine
 10
-5.973816966706277
 20
-15.13746220493152
 30
0.0
 11
-5.496002286880227
 21
-15.24887296237473
 31
0.0
  0
LINE
  5
18D
330
1F
100
AcDbEntity
  8
0
100
AcDbLine
 10
-5.496002286880227
 20
-15.24887296237473
 30
0.0
 11
-5.011924032794452
 21
-15.32879460558162
 31
0.0
  0
LINE
  5
18E
330
1F
100
AcDbEntity
  8
0
100
AcDbLine
 10
-5.011924032794452
 20
-15.32879460558162
 30
0.0
 11
-4.543821988360107
 21
-15.37489863285229
 31
0.0
  0
LINE
  5
18F
330
1F
100
AcDbEntity
  8
0
100
AcDbLine
 10
-4.543821988360107
 20
-15.37489863285229
 30
0.0
 11
-4.14881473970046
 21
-15.39317002045152
 31
0.0
  0
LINE
  5
190
330
1F
100
AcDbEntity
  8
0
100
AcDbLine
 10
-4.115088424349322
 20
-0.4003466132818852
 30
0.0
 11
4.055501906329661
 21
-0.4005373632976925
 31
0.0
  0
LINE
  5
191
330
1F
100
AcDbEntity
  8
0
100
AcDbLine
 10
-4.14881473970046
 20
-15.39317002045152
 30
0.0
 11
3.93925909424016
 21
-15.39519281730832
 31
0.0
  0
ENDSEC
  0
SECTION
  2
OBJECTS
  0
DICTIONARY
  5
C
330
0
100
AcDbDictionary
  3
ACAD_GROUP
350
D
  3
ACAD_LAYOUT
350
1A
  3
ACAD_MATERIAL
350
43
  3
ACAD_MLEADERSTYLE
350
1B4
  3
ACAD_MLINESTYLE
350
17
  3
ACAD_PLOTSETTINGS
350
19
  3
ACAD_SCALELIST
350
47
  3
ACAD_VISUALSTYLE
350
2A
  3
ACDBHEADERROUNDTRIPXREC
350
192
  3
ACDBVARIABLEDICTIONARY
350
1B2
  0
DICTIONARY
  5
1B9
330
8
100
AcDbDictionary
280
     1
  3
ACAD_XREC_ROUNDTRIP
360
1BA
  0
DICTIONARY
  5
D
102
{ACAD_REACTORS
330
C
102
}
330
C
100
AcDbDictionary
  0
DICTIONARY
  5
1A
102
{ACAD_REACTORS
330
C
102
}
330
C
100
AcDbDictionary
  0
DICTIONARY
  5
43
102
{ACAD_REACTORS
330
C
102
}
330
C
100
AcDbDictionary
  3
BYBLOCK
350
45
  3
BYLAYER
350
44
  3
GLOBAL
350
46
  0
DICTIONARY
  5
1B4
102
{ACAD_REACTORS
330
C
102
}
330
C
100
AcDbDictionary
  0
DICTIONARY
  5
17
102
{ACAD_REACTORS
330
C
102
}
330
C
100
AcDbDictionary
  3
STANDARD
350
18
  0
DICTIONARY
  5
19
102
{ACAD_REACTORS
330
C
102
}
330
C
100
AcDbDictionary
  0
DICTIONARY
  5
47
102
{ACAD_REACTORS
330
C
102
}
330
C
100
AcDbDictionary
  3
A0
350
48
  3
A1
350
49
  3
A2
350
4A
  3
A3
350
4B
  3
A4
350
4C
  3
A5
350
4D
  3
A6
350
4E
  3
A7
350
4F
  3
A8
350
50
  3
A9
350
51
  3
B0
350
52
  3
B1
350
53
  3
B2
350
54
  3
B3
350
55
  3
B4
350
56
  3
B5
350
57
  3
B6
350
58
  3
B7
350
59
  3
B8
350
5A
  3
B9
350
5B
  3
C0
350
5C
  3
C1
350
5D
  3
C2
350
5E
  3
C3
350
5F
  3
C4
350
60
  3
C5
350
61
  3
C6
350
62
  3
C7
350
63
  3
C8
350
64
  3
C9
350
65
  3
D0
350
66
  3
D1
350
67
  3
D2
350
68
  0
DICTIONARY
  5
2A
102
{ACAD_REACTORS
330
C
102
}
330
C
100
AcDbDictionary
  3
2DWIREFRAME
350
2F
  3
BASIC
350
32
  3
BRIGHTEN
350
36
  3
COLORCHANGE
350
3A
  3
CONCEPTUAL
350
34
  3
DIM
350
35
  3
EDGECOLOROFF
350
3D
  3
FACEPATTERN
350
39
  3
FLAT
350
2B
  3
FLATWITHEDGES
350
2C
  3
GOURAUD
350
2D
  3
GOURAUDWITHEDGES
350
2E
  3
HIDDEN
350
31
  3
JITTEROFF
350
3B
  3
LINEPATTERN
350
38
  3
OVERHANGOFF
350
3C
  3
REALISTIC
350
33
  3
SHADED
350
42
  3
SHADED_WITH_EDGES
350
41
  3
SHADES_OF_GRAY
350
3E
  3
SKETCHY
350
3F
  3
THICKEN
350
37
  3
WIREFRAME
350
30
  3
X-RAY
350
40
  0
DICTIONARY
  5
192
102
{ACAD_REACTORS
330
C
102
}
330
C
100
AcDbDictionary
  3
CEPSNTYPE
350
19B
  3
DIMSTYLEDATA
350
1B1
  3
FINGERPRINTGUID
350
19C
  3
HYPERLINKBASE
350
195
  3
INSUNITS
350
19A
  3
LAYOUTDICT
350
197
  3
LWETCUNION
350
199
  3
PLOTSETDICT
350
198
  3
PSVPSCALE
350
19E
  3
PUCSBASE
350
1A1
  3
PUCSORGBACK
350
1A7
  3
PUCSORGBOTTOM
350
1A3
  3
PUCSORGFRONT
350
1A6
  3
PUCSORGLEFT
350
1A4
  3
PUCSORGRIGHT
350
1A5
  3
PUCSORGTOP
350
1A2
  3
PUCSORTHOREF
350
19F
  3
PUCSORTHOVIEW
350
1A0
  3
STYLESHEET
350
196
  3
TSTACKALIGN
350
193
  3
TSTACKSIZE
350
194
  3
UCSBASE
350
1AA
  3
UCSORGBACK
350
1B0
  3
UCSORGBOTTOM
350
1AC
  3
UCSORGFRONT
350
1AF
  3
UCSORGLEFT
350
1AD
  3
UCSORGRIGHT
350
1AE
  3
UCSORGTOP
350
1AB
  3
UCSORTHOREF
350
1A8
  3
UCSORTHOVIEW
350
1A9
  3
VERSIONGUID
350
19D
  0
DICTIONARY
  5
1B2
102
{ACAD_REACTORS
330
C
102
}
330
C
100
AcDbDictionary
  3
CANNOSCALE
350
1BB
  3
DIMASSOC
350
1B7
  3
HIDETEXT
350
1B8
  3
MSLTSCALE
350
1BC
  0
XRECORD
  5
1BA
102
{ACAD_REACTORS
330
1B9
102
}
330
1B9
100
AcDbXrecord
102
VTR_0.000_0.000_1.000_1.000_GRIDDISPLAY
 70
     3
102
VTR_0.000_0.000_1.000_1.000_GRIDMAJOR
 70
     5
102
VTR_0.000_0.000_1.000_1.000_DEFAULTLIGHTING
280
     1
102
VTR_0.000_0.000_1.000_1.000_DEFAULTLIGHTINGTYPE
 70
     1
102
VTR_0.000_0.000_1.000_1.000_BRIGHTNESS
141
0.0
102
VTR_0.000_0.000_1.000_1.000_CONTRAST
142
0.0
  0
MATERIAL
  5
45
102
{ACAD_REACTORS
330
43
102
}
102
{ACAD_XDICTIONARY
360
1BF
102
}
330
43
100
AcDbMaterial
  1
BYBLOCK
  0
MATERIAL
  5
44
102
{ACAD_REACTORS
330
43
102
}
102
{ACAD_XDICTIONARY
360
1BD
102
}
330
43
100
AcDbMaterial
  1
BYLAYER
  0
MATERIAL
  5
46
102
{ACAD_REACTORS
330
43
102
}
102
{ACAD_XDICTIONARY
360
1C1
102
}
330
43
100
AcDbMaterial
  1
GLOBAL
  0
MLINESTYLE
  5
18
102
{ACAD_REACTORS
330
17
102
}
330
17
100
AcDbMlineStyle
  2
Standard
 70
     0
  3

 62
   256
 51
90.0
 52
90.0
 71
     2
 49
0.5
 62
   256
  6
BYLAYER
 49
-0.5
 62
   256
  6
BYLAYER
  0
ACAD_PROXY_OBJECT
  5
48
102
{ACAD_REACTORS
330
47
102
}
330
47
100
AcDbProxyObject
 90
      499
 91
      503
 93
       41
310
903313A31580
  0
ACAD_PROXY_OBJECT
  5
49
102
{ACAD_REACTORS
330
47
102
}
330
47
100
AcDbProxyObject
 90
      499
 91
      503
 93
      105
310
903313A324000000000000004000
  0
ACAD_PROXY_OBJECT
  5
4A
102
{ACAD_REACTORS
330
47
102
}
330
47
100
AcDbProxyObject
 90
      499
 91
      503
 93
      105
310
903313A344000000000000104000
  0
ACAD_PROXY_OBJECT
  5
4B
102
{ACAD_REACTORS
330
47
102
}
330
47
100
AcDbProxyObject
 90
      499
 91
      503
 93
      105
310
903313A354000000000000144000
  0
ACAD_PROXY_OBJECT
  5
4C
102
{ACAD_REACTORS
330
47
102
}
330
47
100
AcDbProxyObject
 90
      499
 91
      503
 93
      105
310
903313A384000000000000204000
  0
ACAD_PROXY_OBJECT
  5
4D
102
{ACAD_REACTORS
330
47
102
}
330
47
100
AcDbProxyObject
 90
      499
 91
      503
 93
      113
310
904313A31304000000000000244000
  0
ACAD_PROXY_OBJECT
  5
4E
102
{ACAD_REACTORS
330
47
102
}
330
47
100
AcDbProxyObject
 90
      499
 91
      503
 93
      113
310
904313A31364000000000000304000
  0
ACAD_PROXY_OBJECT
  5
4F
102
{ACAD_REACTORS
330
47
102
}
330
47
100
AcDbProxyObject
 90
      499
 91
      503
 93
      113
310
904313A32304000000000000344000
  0
ACAD_PROXY_OBJECT
  5
50
102
{ACAD_REACTORS
330
47
102
}
330
47
100
AcDbProxyObject
 90
      499
 91
      503
 93
      113
310
904313A333040000000000003E4000
  0
ACAD_PROXY_OBJECT
  5
51
102
{ACAD_REACTORS
330
47
102
}
330
47
100
AcDbProxyObject
 90
      499
 91
      503
 93
      113
310
904313A34304000000000000444000
  0
ACAD_PROXY_OBJECT
  5
52
102
{ACAD_REACTORS
330
47
102
}
330
47
100
AcDbProxyObject
 90
      499
 91
      503
 93
      113
310
904313A35304000000000000494000
  0
ACAD_PROXY_OBJECT
  5
53
102
{ACAD_REACTORS
330
47
102
}
330
47
100
AcDbProxyObject
 90
      499
 91
      503
 93
      121
310
905313A3130304000000000000594000
  0
ACAD_PROXY_OBJECT
  5
54
102
{ACAD_REACTORS
330
47
102
}
330
47
100
AcDbProxyObject
 90
      499
 91
      503
 93
      105
310
903323A310000000000000010100
  0
ACAD_PROXY_OBJECT
  5
55
102
{ACAD_REACTORS
330
47
102
}
330
47
100
AcDbProxyObject
 90
      499
 91
      503
 93
      105
310
903343A310000000000000410100
  0
ACAD_PROXY_OBJECT
  5
56
102
{ACAD_REACTORS
330
47
102
}
330
47
100
AcDbProxyObject
 90
      499
 91
      503
 93
      105
310
903383A310000000000000810100
  0
ACAD_PROXY_OBJECT
  5
57
102
{ACAD_REACTORS
330
47
102
}
330
47
100
AcDbProxyObject
 90
      499
 91
      503
 93
      113
310
90431303A310000000000000910100
  0
ACAD_PROXY_OBJECT
  5
58
102
{ACAD_REACTORS
330
47
102
}
330
47
100
AcDbProxyObject
 90
      499
 91
      503
 93
      121
310
9053130303A310000000000001650100
  0
ACAD_PROXY_OBJECT
  5
59
102
{ACAD_REACTORS
330
47
102
}
330
47
100
AcDbProxyObject
 90
      499
 91
      503
 93
      257
310
90E312F31323822203D2031272D3022000000000000200FC000000000000284000
  0
ACAD_PROXY_OBJECT
  5
5A
102
{ACAD_REACTORS
330
47
102
}
330
47
100
AcDbProxyObject
 90
      499
 91
      503
 93
      249
310
90D312F363422203D2031272D3022000000000000240FC000000000000284000
  0
ACAD_PROXY_OBJECT
  5
5B
102
{ACAD_REACTORS
330
47
102
}
330
47
100
AcDbProxyObject
 90
      499
 91
      503
 93
      249
310
90D312F333222203D2031272D3022000000000000280FC000000000000284000
  0
ACAD_PROXY_OBJECT
  5
5C
102
{ACAD_REACTORS
330
47
102
}
330
47
100
AcDbProxyObject
 90
      499
 91
      503
 93
      249
310
90D312F313622203D2031272D30220000000000002C0FC000000000000284000
  0
ACAD_PROXY_OBJECT
  5
5D
102
{ACAD_REACTORS
330
47
102
}
330
47
100
AcDbProxyObject
 90
      499
 91
      503
 93
      249
310
90D332F333222203D2031272D30220000000000002E0FC000000000000284000
  0
ACAD_PROXY_OBJECT
  5
5E
102
{ACAD_REACTORS
330
47
102
}
330
47
100
AcDbProxyObject
 90
      499
 91
      503
 93
      241
310
90C312F3822203D2031272D3022000000000000300FC000000000000284000
  0
ACAD_PROXY_OBJECT
  5
5F
102
{ACAD_REACTORS
330
47
102
}
330
47
100
AcDbProxyObject
 90
      499
 91
      503
 93
      249
310
90D332F313622203D2031272D3022000000000000320FC000000000000284000
  0
ACAD_PROXY_OBJECT
  5
60
102
{ACAD_REACTORS
330
47
102
}
330
47
100
AcDbProxyObject
 90
      499
 91
      503
 93
      241
310
90C312F3422203D2031272D3022000000000000340FC000000000000284000
  0
ACAD_PROXY_OBJECT
  5
61
102
{ACAD_REACTORS
330
47
102
}
330
47
100
AcDbProxyObject
 90
      499
 91
      503
 93
      241
310
90C332F3822203D2031272D3022000000000000360FC000000000000284000
  0
ACAD_PROXY_OBJECT
  5
62
102
{ACAD_REACTORS
330
47
102
}
330
47
100
AcDbProxyObject
 90
      499
 91
      503
 93
      241
310
90C312F3222203D2031272D3022000000000000380FC000000000000284000
  0
ACAD_PROXY_OBJECT
  5
63
102
{ACAD_REACTORS
330
47
102
}
330
47
100
AcDbProxyObject
 90
      499
 91
      503
 93
      241
310
90C332F3422203D2031272D30220000000000003A0FC000000000000284000
  0
ACAD_PROXY_OBJECT
  5
64
102
{ACAD_REACTORS
330
47
102
}
330
47
100
AcDbProxyObject
 90
      499
 91
      503
 93
      161
310
90A3122203D2031272D30224000000000000284000
  0
ACAD_PROXY_OBJECT
  5
65
102
{ACAD_REACTORS
330
47
102
}
330
47
100
AcDbProxyObject
 90
      499
 91
      503
 93
      257
310
90E312D312F3222203D2031272D30220000000000003E0FC000000000000284000
  0
ACAD_PROXY_OBJECT
  5
66
102
{ACAD_REACTORS
330
47
102
}
330
47
100
AcDbProxyObject
 90
      499
 91
      503
 93
      225
310
90A3322203D2031272D302200000000000002100000000000000284000
  0
ACAD_PROXY_OBJECT
  5
67
102
{ACAD_REACTORS
330
47
102
}
330
47
100
AcDbProxyObject
 90
      499
 91
      503
 93
      225
310
90A3622203D2031272D302200000000000006100000000000000284000
  0
ACAD_PROXY_OBJECT
  5
68
102
{ACAD_REACTORS
330
47
102
}
330
47
100
AcDbProxyObject
 90
      499
 91
      503
 93
      249
310
90D31272D3022203D2031272D30220000000000000A100000000000000284000
  0
ACAD_PROXY_OBJECT
  5
2F
102
{ACAD_REACTORS
330
2A
102
}
330
2A
100
AcDbProxyObject
 90
      499
 91
      501
 93
      436
310
42CC9915DA5C99599C985B595049028333333333333E33F0000000000000F90107901411070040501600405405064090741402480A0340
1001
ACAD
1000
AcDbSavedByObjectVersion
1070
     0
  0
ACAD_PROXY_OBJECT
  5
32
102
{ACAD_REACTORS
330
2A
102
}
330
2A
100
AcDbProxyObject
 90
      499
 91
      501
 93
      388
310
4150985CDA58D07406404333333333333E33F0000000000000F90107A41107004050150841D405064090741402480A0350
1001
ACAD
1000
AcDbSavedByObjectVersion
1070
     0
  0
ACAD_PROXY_OBJECT
  5
36
102
{ACAD_REACTORS
330
2A
102
}
330
2A
100
AcDbProxyObject
 90
      499
 91
      501
 93
      428
310
42109C9A59DA1D195B90C409028333333333333E33F0000000000000F9010790141107004050150841D405064090741402480A029950
1001
ACAD
1000
AcDbSavedByObjectVersion
1070
     0
  0
ACAD_PROXY_OBJECT
  5
3A
102
{ACAD_REACTORS
330
2A
102
}
330
2A
100
AcDbProxyObject
 90
      499
 91
      501
 93
      452
310
42D0DBDB1BDC90DA185B99D95104090240C333333333333E33F0000000000000F90108901411070040501508421405064090741402480A0350
1001
ACAD
1000
AcDbSavedByObjectVersion
1070
     0
  0
ACAD_PROXY_OBJECT
  5
34
102
{ACAD_REACTORS
330
2A
102
}
330
2A
100
AcDbProxyObject
 90
      499
 91
      501
 93
      500
310
4290DBDB98D95C1D1D585B10940D028333333333333E33F0000000000000F90107902409070040501000000000018199010841D405064090740C02480A0340
1001
ACAD
1000
AcDbSavedByObjectVersion
1070
     0
  0
ACAD_PROXY_OBJECT
  5
35
102
{ACAD_REACTORS
330
2A
102
}
330
2A
100
AcDbProxyObject
 90
      499
 91
      501
 93
      412
310
40D11A5B50B409028333333333333E33F0000000000000F9010790141107004050150841D405064090741402480A02677FFFFFD0
1001
ACAD
1000
AcDbSavedByObjectVersion
1070
     0
  0
ACAD_PROXY_OBJECT
  5
3D
102
{ACAD_REACTORS
330
2A
102
}
330
2A
100
AcDbProxyObject
 90
      499
 91
      501
 93
      452
310
43115919D950DBDB1BDC93D999916409028333333333333E33F0000000000000F9010790141107004050150841D405064090741402480A0350
1001
ACAD
1000
AcDbSavedByObjectVersion
1070
     0
  0
ACAD_PROXY_OBJECT
  5
39
102
{ACAD_REACTORS
330
2A
102
}
330
2A
100
AcDbProxyObject
 90
      499
 91
      501
 93
      444
310
42D19858D95C185D1D195C9B90F409028333333333333E33F0000000000000F9010790141107004050150841D405064090741402480A0350
1001
ACAD
1000
AcDbSavedByObjectVersion
1070
     0
  0
ACAD_PROXY_OBJECT
  5
2B
102
{ACAD_REACTORS
330
2A
102
}
330
2A
100
AcDbProxyObject
 90
      499
 91
      501
 93
      380
310
41119B185D240901404333333333333E33F0000000000000F9010740A907004050150841D405064090741402480A1B50
1001
ACAD
1000
AcDbSavedByObjectVersion
1070
     0
  0
ACAD_PROXY_OBJECT
  5
2C
102
{ACAD_REACTORS
330
2A
102
}
330
2A
100
AcDbProxyObject
 90
      499
 91
      501
 93
      468
310
43519B185D15DA5D1A115919D95CD0140901404333333333333E33F0000000000000F90107409019070040501600405405064090741402480A1B50
1001
ACAD
1000
AcDbSavedByObjectVersion
1070
     0
  0
ACAD_PROXY_OBJECT
  5
2D
102
{ACAD_REACTORS
330
2A
102
}
330
2A
100
AcDbProxyObject
 90
      499
 91
      501
 93
      404
310
41D1DBDD5C985D5910240902404333333333333E33F0000000000000F9010740A9070040501641D405064090741402480A1B50
1001
ACAD
1000
AcDbSavedByObjectVersion
1070
     0
  0
ACAD_PROXY_OBJECT
  5
2E
102
{ACAD_REACTORS
330
2A
102
}
330
2A
100
AcDbProxyObject
 90
      499
 91
      501
 93
      492
310
4411DBDD5C985D5915DA5D1A115919D95CD0340902404333333333333E33F0000000000000F90107409019070040501600405405064090741402480A1B50
1001
ACAD
1000
AcDbSavedByObjectVersion
1070
     0
  0
ACAD_PROXY_OBJECT
  5
31
102
{ACAD_REACTORS
330
2A
102
}
330
2A
100
AcDbProxyObject
 90
      499
 91
      501
 93
      476
310
41921A5919195B90640502408333333333333E33F0000000000000F901079024090700405020000000000001110200405405064090740C02480A0340
1001
ACAD
1000
AcDbSavedByObjectVersion
1070
     0
  0
ACAD_PROXY_OBJECT
  5
3B
102
{ACAD_REACTORS
330
2A
102
}
330
2A
100
AcDbProxyObject
 90
      499
 91
      501
 93
      428
310
42529A5D1D195C93D999914409028333333333333E33F0000000000000F9010790141107004050150A41D405064090741402480A0350
1001
ACAD
1000
AcDbSavedByObjectVersion
1070
     0
  0
ACAD_PROXY_OBJECT
  5
38
102
{ACAD_REACTORS
330
2A
102
}
330
2A
100
AcDbProxyObject
 90
      499
 91
      501
 93
      444
310
42D31A5B995C185D1D195C9B90E409028333333333333E33F0000000000000F9010790141107004050750841D405064090741402483A0350
1001
ACAD
1000
AcDbSavedByObjectVersion
1070
     0
  0
ACAD_PROXY_OBJECT
  5
3C
102
{ACAD_REACTORS
330
2A
102
}
330
2A
100
AcDbProxyObject
 90
      499
 91
      501
 93
      444
310
42D3DD995C9A185B99D3D999915409028333333333333E33F0000000000000F9010790141107004050150941D405064090741402480A0350
1001
ACAD
1000
AcDbSavedByObjectVersion
1070
     0
  0
ACAD_PROXY_OBJECT
  5
33
102
{ACAD_REACTORS
330
2A
102
}
330
2A
100
AcDbProxyObject
 90
      499
 91
      501
 93
      428
310
425499585B1A5CDD1A58D08409038333333333333E33F0000000000000F9010740A907004050150800405405064090740C02480A1B40
1001
ACAD
1000
AcDbSavedByObjectVersion
1070
     0
  0
ACAD_PROXY_OBJECT
  5
42
102
{ACAD_REACTORS
330
2A
102
}
330
2A
100
AcDbProxyObject
 90
      499
 91
      501
 93
      420
310
4194DA1859195911B40902404333333333333E33F0000000000000F9010740A41107004050150800405405064090840C02480A0B40
1001
ACAD
1000
AcDbSavedByObjectVersion
1070
     0
  0
ACAD_PROXY_OBJECT
  5
41
102
{ACAD_REACTORS
330
2A
102
}
330
2A
100
AcDbProxyObject
 90
      499
 91
      501
 93
      516
310
4454DA18591959081DDA5D1A08195919D95CD1A40902404333333333333E33F0000000000000F901074090142907004050250800405405064090740C02480A0B40
1001
ACAD
1000
AcDbSavedByObjectVersion
1070
     0
  0
ACAD_PROXY_OBJECT
  5
3E
102
{ACAD_REACTORS
330
2A
102
}
330
2A
100
AcDbProxyObject
 90
      499
 91
      501
 93
      532
310
4394DA1859195CC81BD98811DC985E5174090240C333333333333E33F0000000000000F901079024090741D01000000000000111010841D405064090740C02480A0340
1001
ACAD
1000
AcDbSavedByObjectVersion
1070
     0
  0
ACAD_PROXY_OBJECT
  5
3F
102
{ACAD_REACTORS
330
2A
102
}
330
2A
100
AcDbProxyObject
 90
      499
 91
      501
 93
      476
310
41D4DAD95D18DA1E51840502408333333333333E33F0000000000000F901079024090741D01000000000000111010B41D405064090741802480A0340
1001
ACAD
1000
AcDbSavedByObjectVersion
1070
     0
  0
ACAD_PROXY_OBJECT
  5
37
102
{ACAD_REACTORS
330
2A
102
}
330
2A
100
AcDbProxyObject
 90
      499
 91
      501
 93
      412
310
41D51A1A58DAD95B90D409028333333333333E33F0000000000000F9010790141107004050150C41D405064090741402480A0350
1001
ACAD
1000
AcDbSavedByObjectVersion
1070
     0
  0
ACAD_PROXY_OBJECT
  5
30
102
{ACAD_REACTORS
330
2A
102
}
330
2A
100
AcDbProxyObject
 90
      499
 91
      501
 93
      420
310
4255DA5C99599C985B595059028333333333333E33F0000000000000F90107901411070040501600405405064090740C02480A0340
1001
ACAD
1000
AcDbSavedByObjectVersion
1070
     0
  0
ACAD_PROXY_OBJECT
  5
40
102
{ACAD_REACTORS
330
2A
102
}
330
2A
100
AcDbProxyObject
 90
      499
 91
      501
 93
      404
310
41560B54985E51940902404000000000000E03F0000000000000F9010740501907004050150841D405064090740C02480A1B40
1001
ACAD
1000
AcDbSavedByObjectVersion
1070
     0
  0
XRECORD
  5
19B
102
{ACAD_REACTORS
330
192
102
}
330
192
100
AcDbXrecord
 90
        0
  0
XRECORD
  5
1B1
102
{ACAD_REACTORS
330
192
102
}
330
192
100
AcDbXrecord
1000
DSTYLE
1002
{
1070
   340
340
11
1002
}
  0
XRECORD
  5
19C
102
{ACAD_REACTORS
330
192
102
}
330
192
100
AcDbXrecord
  1
{CDA56097-9D55-4E19-BE10-4808A41215EB}
  0
XRECORD
  5
195
102
{ACAD_REACTORS
330
192
102
}
330
192
100
AcDbXrecord
  1

  0
XRECORD
  5
19A
102
{ACAD_REACTORS
330
192
102
}
330
192
100
AcDbXrecord
 90
        1
  0
XRECORD
  5
197
102
{ACAD_REACTORS
330
192
102
}
330
192
100
AcDbXrecord
340
1A
  0
XRECORD
  5
199
102
{ACAD_REACTORS
330
192
102
}
330
192
100
AcDbXrecord
 90
    10781
  0
XRECORD
  5
198
102
{ACAD_REACTORS
330
192
102
}
330
192
100
AcDbXrecord
340
19
  0
XRECORD
  5
19E
102
{ACAD_REACTORS
330
192
102
}
330
192
100
AcDbXrecord
 40
0.0
  0
XRECORD
  5
1A1
102
{ACAD_REACTORS
330
192
102
}
330
192
100
AcDbXrecord
340
0
  0
XRECORD
  5
1A7
102
{ACAD_REACTORS
330
192
102
}
330
192
100
AcDbXrecord
 10
0.0
 20
0.0
 30
0.0
  0
XRECORD
  5
1A3
102
{ACAD_REACTORS
330
192
102
}
330
192
100
AcDbXrecord
 10
0.0
 20
0.0
 30
0.0
  0
XRECORD
  5
1A6
102
{ACAD_REACTORS
330
192
102
}
330
192
100
AcDbXrecord
 10
0.0
 20
0.0
 30
0.0
  0
XRECORD
  5
1A4
102
{ACAD_REACTORS
330
192
102
}
330
192
100
AcDbXrecord
 10
0.0
 20
0.0
 30
0.0
  0
XRECORD
  5
1A5
102
{ACAD_REACTORS
330
192
102
}
330
192
100
AcDbXrecord
 10
0.0
 20
0.0
 30
0.0
  0
XRECORD
  5
1A2
102
{ACAD_REACTORS
330
192
102
}
330
192
100
AcDbXrecord
 10
0.0
 20
0.0
 30
0.0
  0
XRECORD
  5
19F
102
{ACAD_REACTORS
330
192
102
}
330
192
100
AcDbXrecord
340
0
  0
XRECORD
  5
1A0
102
{ACAD_REACTORS
330
192
102
}
330
192
100
AcDbXrecord
 70
     0
  0
XRECORD
  5
196
102
{ACAD_REACTORS
330
192
102
}
330
192
100
AcDbXrecord
  1

  0
XRECORD
  5
193
102
{ACAD_REACTORS
330
192
102
}
330
192
100
AcDbXrecord
 90
        1
  0
XRECORD
  5
194
102
{ACAD_REACTORS
330
192
102
}
330
192
100
AcDbXrecord
 90
       70
  0
XRECORD
  5
1AA
102
{ACAD_REACTORS
330
192
102
}
330
192
100
AcDbXrecord
340
0
  0
XRECORD
  5
1B0
102
{ACAD_REACTORS
330
192
102
}
330
192
100
AcDbXrecord
 10
0.0
 20
0.0
 30
0.0
  0
XRECORD
  5
1AC
102
{ACAD_REACTORS
330
192
102
}
330
192
100
AcDbXrecord
 10
0.0
 20
0.0
 30
0.0
  0
XRECORD
  5
1AF
102
{ACAD_REACTORS
330
192
102
}
330
192
100
AcDbXrecord
 10
0.0
 20
0.0
 30
0.0
  0
XRECORD
  5
1AD
102
{ACAD_REACTORS
330
192
102
}
330
192
100
AcDbXrecord
 10
0.0
 20
0.0
 30
0.0
  0
XRECORD
  5
1AE
102
{ACAD_REACTORS
330
192
102
}
330
192
100
AcDbXrecord
 10
0.0
 20
0.0
 30
0.0
  0
XRECORD
  5
1AB
102
{ACAD_REACTORS
330
192
102
}
330
192
100
AcDbXrecord
 10
0.0
 20
0.0
 30
0.0
  0
XRECORD
  5
1A8
102
{ACAD_REACTORS
330
192
102
}
330
192
100
AcDbXrecord
340
0
  0
XRECORD
  5
1A9
102
{ACAD_REACTORS
330
192
102
}
330
192
100
AcDbXrecord
 70
     0
  0
XRECORD
  5
19D
102
{ACAD_REACTORS
330
192
102
}
330
192
100
AcDbXrecord
  1
{FAEB1C32-E019-11D5-929B-00C0DF256EC4}
  0
DICTIONARYVAR
  5
1BB
102
{ACAD_REACTORS
330
1B2
102
}
330
1B2
100
DictionaryVariables
280
     0
  1
1:1
  0
DICTIONARYVAR
  5
1B7
102
{ACAD_REACTORS
330
1B2
102
}
330
1B2
100
DictionaryVariables
280
     0
  1
2
  0
DICTIONARYVAR
  5
1B8
102
{ACAD_REACTORS
330
1B2
102
}
330
1B2
100
DictionaryVariables
280
     0
  1
1
  0
DICTIONARYVAR
  5
1BC
102
{ACAD_REACTORS
330
1B2
102
}
330
1B2
100
DictionaryVariables
280
     0
  1
1
  0
DICTIONARY
  5
1BF
330
45
100
AcDbDictionary
280
     1
  3
ACAD_XREC_ROUNDTRIP
360
1C0
  0
DICTIONARY
  5
1BD
330
44
100
AcDbDictionary
280
     1
  3
ACAD_XREC_ROUNDTRIP
360
1BE
  0
DICTIONARY
  5
1C1
330
46
100
AcDbDictionary
280
     1
  3
ACAD_XREC_ROUNDTRIP
360
1C2
  0
XRECORD
  5
1C0
102
{ACAD_REACTORS
330
1BF
102
}
330
1BF
100
AcDbXrecord
102
MATERIAL
148
0.0
149
0.0
149
0.0
 93
        0
 94
      127
282
     0
 72
     1
 77
     1
171
     1
175
     1
179
     1
273
     0
  0
XRECORD
  5
1BE
102
{ACAD_REACTORS
330
1BD
102
}
330
1BD
100
AcDbXrecord
102
MATERIAL
148
0.0
149
0.0
149
0.0
 93
        0
 94
      127
282
     0
 72
     1
 77
     1
171
     1
175
     1
179
     1
273
     0
  0
XRECORD
  5
1C2
102
{ACAD_REACTORS
330
1C1
102
}
330
1C1
100
AcDbXrecord
102
MATERIAL
148
0.0
149
0.0
149
0.0
 93
        0
 94
      127
282
     0
 72
     1
 77
     1
171
     1
175
     1
179
     1
273
     0
  0
ENDSEC
  0
EOF
